/* XPM */
static char * collectible_xpm[] = {
"64 64 177 2",
"  	c None",
". 	c #FFFFFF",
"+ 	c #FDFDFD",
"@ 	c #FBFBFB",
"# 	c #FAFAFA",
"$ 	c #F8F8F8",
"% 	c #F9F9F9",
"& 	c #F6F6F6",
"* 	c #F0F0F0",
"= 	c #E9E9E9",
"- 	c #E4E4E4",
"; 	c #E2E2E2",
"> 	c #DFDFDF",
", 	c #E3E3E3",
"' 	c #E8E8E8",
") 	c #EBEBEB",
"! 	c #EEEEEE",
"~ 	c #F2F2F2",
"{ 	c #F3F3F3",
"] 	c #F7F7F7",
"^ 	c #FCFCFC",
"/ 	c #FEFEFE",
"( 	c #DDDDDD",
"_ 	c #CACACA",
": 	c #BDBDBD",
"< 	c #AEAEAE",
"[ 	c #ACACAC",
"} 	c #A7A7A7",
"| 	c #ADADAD",
"1 	c #B7B7B7",
"2 	c #BBBBBB",
"3 	c #C7C7C7",
"4 	c #C9C9C9",
"5 	c #D2D2D2",
"6 	c #D5D5D5",
"7 	c #DEDEDE",
"8 	c #C4C4C4",
"9 	c #AAAAAA",
"0 	c #8A8A8A",
"a 	c #777777",
"b 	c #666666",
"c 	c #626262",
"d 	c #707070",
"e 	c #767676",
"f 	c #7F7F7F",
"g 	c #838383",
"h 	c #8D8D8D",
"i 	c #949494",
"j 	c #A0A0A0",
"k 	c #C0C0C0",
"l 	c #EAEAEA",
"m 	c #D0D0D0",
"n 	c #B3B3B3",
"o 	c #8B8B8B",
"p 	c #696969",
"q 	c #474747",
"r 	c #3B3B3B",
"s 	c #2E2E2E",
"t 	c #353535",
"u 	c #383838",
"v 	c #424242",
"w 	c #404040",
"x 	c #4D4D4D",
"y 	c #4F4F4F",
"z 	c #5D5D5D",
"A 	c #828282",
"B 	c #A2A2A2",
"C 	c #E6E6E6",
"D 	c #A3A3A3",
"E 	c #787878",
"F 	c #161616",
"G 	c #262626",
"H 	c #323232",
"I 	c #2A2A2A",
"J 	c #222222",
"K 	c #6D6D6D",
"L 	c #A6A6A6",
"M 	c #D6D6D6",
"N 	c #C8C8C8",
"O 	c #9B9B9B",
"P 	c #6A6A6A",
"Q 	c #555555",
"R 	c #606060",
"S 	c #5F5F5F",
"T 	c #636363",
"U 	c #5C5C5C",
"V 	c #585858",
"W 	c #4B4B4B",
"X 	c #8F8F8F",
"Y 	c #CBCBCB",
"Z 	c #CECECE",
"` 	c #9D9D9D",
" .	c #494949",
"..	c #818181",
"+.	c #A4A4A4",
"@.	c #9F9F9F",
"#.	c #9A9A9A",
"$.	c #909090",
"%.	c #7C7C7C",
"&.	c #656565",
"*.	c #565656",
"=.	c #515151",
"-.	c #D3D3D3",
";.	c #F1F1F1",
">.	c #DCDCDC",
",.	c #AFAFAF",
"'.	c #727272",
").	c #3D3D3D",
"!.	c #535353",
"~.	c #7E7E7E",
"{.	c #D9D9D9",
"].	c #BFBFBF",
"^.	c #B9B9B9",
"/.	c #A1A1A1",
"(.	c #898989",
"_.	c #7A7A7A",
":.	c #ABABAB",
"<.	c #EFEFEF",
"[.	c #E7E7E7",
"}.	c #E0E0E0",
"|.	c #DADADA",
"1.	c #D1D1D1",
"2.	c #C1C1C1",
"3.	c #BCBCBC",
"4.	c #CDCDCD",
"5.	c #979797",
"6.	c #D4D4D4",
"7.	c #CCCCCC",
"8.	c #C2C2C2",
"9.	c #969696",
"0.	c #9E9E9E",
"a.	c #D7D7D7",
"b.	c #E5E5E5",
"c.	c #C3C3C3",
"d.	c #737373",
"e.	c #686868",
"f.	c #DBDBDB",
"g.	c #B4B4B4",
"h.	c #7D7D7D",
"i.	c #1C1C1C",
"j.	c #454545",
"k.	c #929292",
"l.	c #F4F4F4",
"m.	c #0D0D0D",
"n.	c #000000",
"o.	c #D8D8D8",
"p.	c #999999",
"q.	c #B8B8B8",
"r.	c #EDEDED",
"s.	c #A9A9A9",
"t.	c #B1B1B1",
"u.	c #939393",
"v.	c #F5F5F5",
"w.	c #ECECEC",
"x.	c #848484",
"y.	c #808080",
"z.	c #B5B5B5",
"A.	c #6C6C6C",
"B.	c #A8A8A8",
"C.	c #A5A5A5",
"D.	c #878787",
"E.	c #858585",
"F.	c #8E8E8E",
"G.	c #5A5A5A",
"H.	c #717171",
"I.	c #797979",
"J.	c #9C9C9C",
"K.	c #6E6E6E",
"L.	c #BABABA",
"M.	c #989898",
"N.	c #888888",
"O.	c #B6B6B6",
"P.	c #E1E1E1",
"Q.	c #C5C5C5",
"R.	c #B0B0B0",
"S.	c #959595",
"T.	c #C6C6C6",
". . . . . . . . . . . . . . . . . . . . . . . . . . . . . . . . . . . . . . . . . . . . . . . . . . . . . . . . . . . . . . . . ",
". . . . . . . . . . . . . . . . . . . . . . . . . . . . . . . . . . . . . . . . . . . . . . . . . . . . . . . . . . . . . . . . ",
". . . . . . . . . . . . . . . . . . . . . . . . . . . . . . . . . . . . . . . . . . . . . . . . . . . . . . . . . . . . . . . . ",
". . . . . . . . . . . . . . . . . . . . . . . . . . . . . . . . . . . . . . . . . . . . . . . . . . . . . . . . . . . . . . . . ",
". . . . . . . . . . . . . . . . . . . . . . . . . . . . . . . . . . . . . . . . . . . . . . . . . . . . . . . . . . . . . . . . ",
". . . . . . . . . . . . . . . . . . . . . . . . . . . . . . . . . . . . . . . . . . . . . . . . . . . . . . . . . . . . . . . . ",
". . . . . . . . . . . . . . . . . . . . . . . . . . . . . . . . . . . . . . . . . . . . . . . . . . . . . . . . . . . . . . . . ",
". . . . . . . . . . . . . . . . . . . . . . . . . . . . . . . . . . . . . . . . . . . . . . . . . . . . . . . . . . . . . . . . ",
". . . . . . . . . . . . . . . . . . . . . . . . . . . . . . . . . . . . . . . . . . . . . . . . . . . . . . . . . . . . . . . . ",
". . . . . . . . . . . . . . . . . . . . . . . + @ # $ % % # @ + + . . . . . . . . . . . . . . . . . . . . . . . . . . . . . . . ",
". . . . . . . . . . . . . . . . . . . . . + & * = - ; > ; , ' ) ! ~ { & ] # ^ / . . . . . . . . . . . . . . . . . . . . . . . . ",
". . . . . . . . . . . . . . . . . . . + ] ) ( _ : < [ } [ | 1 2 3 4 5 6 ( ; ) { # / . . . . . . . . . . . . . . . . . . . . . . ",
". . . . . . . . . . . . . . . . . / # * 7 8 9 0 a b b c b b d e f g h i j | k 6 = & + . . . . . . . . . . . . . . . . . . . . . ",
". . . . . . . . . . . . . . . . / $ l m n o p q r s t s t s r u v w x y z b A B 4 C $ / . . . . . . . . . . . . . . . . . . . . ",
". . . . . . . . . . . . . . . . % C _ D E y t F G G H I H I s J G F G J s s q K L M ~ ^ . . . . . . . . . . . . . . . . . . . . ",
". . . . . . . . . . . . . . . # = N O P q J I s q Q R S T U V x W w w t t G s q X Y ! @ . . . . . . . . . . . . . . . . . . . . ",
". . . . . . . . . . . . . . + ! Z ` b r s H  .T ..i B +.L @.#.$.o ..%.K &.*.=.&.@.-.;.@ . . . . . . . . . . . . . . . . . . . . ",
". . . . . . . . . . . . . / & >.,.'.).G s !.~.j k m >.7 7 {.M Z _ ].^.9 /.i i D 8 ; & / . . . . . . . . . . . . . . . . . . . . ",
". . . . . . . . . . . . . @ l 8 (.x J J q _.:.Z , ! * <.) [.}.|.1._ 2.: 3.2.4 M C { ^ . . . . . . . . . . . . . . . . . . . . . ",
". . . . . . + @ % % % % ] ) 4.j b H J u &.5.: -.>.( |.6.7.8.1 | /.9.$.$.0.3.a.) ] ^ . . . . . . . . . . . . . . . . . . . . . . ",
". . . . / # { ) b.}.> ( a.c.` K w G I W d h @.} } D 0.i 0 ~.d.e.S Q =.=.e.j 5 <.@ . . . . . . . . . . . . . . . . . . . . . . . ",
". . . . # ! f.8 g.:.} D 5.h.V H F i.s j.*.R T T T R U !.W v r t H I I t W k.4.! @ . . . . . . . . . . . . . . . . . . . . . . . ",
". . . + l.( 1 h d.e.T S !.).J m.n.m.i.I H H H H H H s I G G I H t r j.V a 9 o.~ ^ . . . . . . . . . . . . . . . . . . . . . . . ",
". . . @ * m p.V w t H s G F m.n.n.n.F i.G s H H H H t r v W Q S e.d...i < Z ' $ / . . . . . . . . . . . . . . . . . . . . . . . ",
". . . @ * m p.V w t H s G F m.n.m.F I v =.U R T T b P d.~.0 9./.| q.c.1.7 r.] + . . . . . . . . . . . . . . . . . . . . . . . . ",
". . . + l.( 1 h d.p T V j.G m.m.J w T A i 0.D } s.:.t.^.8.7.6 >.; ' r.~ ] @ / . . . . . . . . . . . . . . . . . . . . . . . . . ",
". . . . # ! f.8 g.:.D u.P ).i.G  .f :.3 6.|.( > }.; b.= r.;.v.] # @ + / . . . . . . . . . . . . . . . . . . . . . . . . . . . . ",
". . . . / # { ) b.}.o.^.h.w F I T } o.<.v.] $ % % % # @ + / . . . . . . . . . . . . . . . . . . . . . . . . . . . . . . . . . . ",
". . . . . . + @ % $ w.Y x.v i.r E 2.) ^ . . . . . . . + + ^ ^ @ # % % $ # @ / . . . . . . . . . . . . . . . . . . . . . . . . . ",
". . . . . . . . . / ~ 3 y.).F ).~.8.r.$ % $ % & & ~ ~ <.! w.= [., ; > ; C ! v.^ . . . . . . . . . . . . . . . . . . . . . . . . ",
". . . . . . . . / @ ) 8 _.w J j._.^.M }.> > |.o.m m 3 N k k q.z.| [ } < 1 Y }.~ ^ . . . . . . . . . . . . . . . . . . . . . . . ",
". . . . . . / # { ) o.| A.H F H S o /.B.C.L @.5.o D...f E E '.d b b T A.a #.8 [.$ / . . . . . . . . . . . . . . . . . . . . . . ",
". . . . . + v.' M c.B.E.=.G m.i.t x V c S T U *.j.q ).v u ).u r s t s u ).P [ 7 v./ . . . . . . . . . . . . . . . . . . . . . . ",
". . . . / & - 3 D E.P y s F n.n.m.i.J s I H I s F J F G J I J s I H s u ).P [ 7 v./ . . . . . . . . . . . . . . . . . . . . . . ",
". . . . @ ;.6 D P W u I F m.n.n.n.m.i.I I t s r r j.w W  .=.y V U T c A.a #.8 [.$ / . . . . . . . . . . . . . . . . . . . . . . ",
". . . . @ ! Y F.v s H s I i.m.n.m.i.t x G.&.b H.I.A x.0 h u.i J.@.L L < 1 Y > <.% + . . . . . . . . . . . . . . . . . . . . . . ",
". . . . @ ;.M } H.z R T z  .I F m.J q K.0 D 9 ^.]._ Y 5 m M 6 |.f.> > ; b.= l r.<.l.# / . . . . . . . . . . . . . . . . . . . . ",
". . . . / & b.Y ,.D D B.+.h b t F i.w K.O L.1.> ) <.l.{ & v.& & $ $ % $ v.' {.Z m 7 ! # . . . . . . . . . . . . . . . . . . . . ",
". . . . . + & w.; >.( }.> _ 0.T s m.I x _./.k M ) & ^ + / / . . . . . @ r.m ,.i M.q.( l.+ . . . . . . . . . . . . . . . . . . . ",
". . . . . . / @ $ & ] # # ) _ 5.z H G s y p N.:.8 f.[.! l.& $ % # @ % ! 6.s.E y *.$._ ! @ . . . . . . . . . . . . . . . . . . . ",
". . . . . . . . . . . . . @ b.c.9.p q r t u W P D.C.O.3 Z a.f.P.- - }.Z ,.h.x s w ..Q.w.@ . . . . . . . . . . . . . . . . . . . ",
". . . . . . . . . . . . . . % - Y L g S r G J u  .T '.g o 5.j } < R.| O %.=.s i. .0 _ <.+ . . . . . . . . . . . . . . . . . . . ",
". . . . . . . . . . . . . . . # l o.^.S.e.v J G J t u j. .!.U T e.K A.R x H G t b C.{.v./ . . . . . . . . . . . . . . . . . . . ",
". . . . . . . . . . . . . . . . @ { }.T.j %.G.q t H J G i.G s H t u u t H H r R i Q.l @ . . . . . . . . . . . . . . . . . . . . ",
". . . . . . . . . . . . . . . . . + ] = 5 ^.J.D.d S W v H s s H s I I H ).*.d.p.c.; ] . . . . . . . . . . . . . . . . . . . . . ",
". . . . . . . . . . . . . . . . . . / @ ~ C M 3 n D F.f K &.c R z V G.&.a u.,.4.- & / . . . . . . . . . . . . . . . . . . . . . ",
". . . . . . . . . . . . . . . . . . . . / # & ! C >.Z 8 z.< } +.j ` @.9 q.Y ( ! $ / . . . . . . . . . . . . . . . . . . . . . . ",
". . . . . . . . . . . . . . . . . . . . . . / + @ ] { w.' , }.7 >.f.>.}.[.<.& ^ . . . . . . . . . . . . . . . . . . . . . . . . ",
". . . . . . . . . . . . . . . . . . . . . . . . . . / + @ # % % $ ] ] $ @ + . . . . . . . . . . . . . . . . . . . . . . . . . . ",
". . . . . . . . . . . . . . . . . . . . . . . . . . . . . . . . . . . . . . . . . . . . . . . . . . . . . . . . . . . . . . . . ",
". . . . . . . . . . . . . . . . . . . . . . . . . . . . . . . . . . . . . . . . . . . . . . . . . . . . . . . . . . . . . . . . ",
". . . . . . . . . . . . . . . . . . . . . . . . . . . . . . . . . . . . . . . . . . . . . . . . . . . . . . . . . . . . . . . . ",
". . . . . . . . . . . . . . . . . . . . . . . . . . . . . . . . . . . . . . . . . . . . . . . . . . . . . . . . . . . . . . . . ",
". . . . . . . . . . . . . . . . . . . . . . . . . . . . . . . . . . . . . . . . . . . . . . . . . . . . . . . . . . . . . . . . ",
". . . . . . . . . . . . . . . . . . . . . . . . . . . . . . . . . . . . . . . . . . . . . . . . . . . . . . . . . . . . . . . . ",
". . . . . . . . . . . . . . . . . . . . . . . . . . . . . . . . . . . . . . . . . . . . . . . . . . . . . . . . . . . . . . . . ",
". . . . . . . . . . . . . . . . . . . . . . . . . . . . . . . . . . . . . . . . . . . . . . . . . . . . . . . . . . . . . . . . ",
". . . . . . . . . . . . . . . . . . . . . . . . . . . . . . . . . . . . . . . . . . . . . . . . . . . . . . . . . . . . . . . . ",
". . . . . . . . . . . . . . . . . . . . . . . . . . . . . . . . . . . . . . . . . . . . . . . . . . . . . . . . . . . . . . . . ",
". . . . . . . . . . . . . . . . . . . . . . . . . . . . . . . . . . . . . . . . . . . . . . . . . . . . . . . . . . . . . . . . ",
". . . . . . . . . . . . . . . . . . . . . . . . . . . . . . . . . . . . . . . . . . . . . . . . . . . . . . . . . . . . . . . . ",
". . . . . . . . . . . . . . . . . . . . . . . . . . . . . . . . . . . . . . . . . . . . . . . . . . . . . . . . . . . . . . . . ",
". . . . . . . . . . . . . . . . . . . . . . . . . . . . . . . . . . . . . . . . . . . . . . . . . . . . . . . . . . . . . . . . ",
". . . . . . . . . . . . . . . . . . . . . . . . . . . . . . . . . . . . . . . . . . . . . . . . . . . . . . . . . . . . . . . . "};
