/* XPM */
static char * mine_xpm[] = {
"64 64 182 2",
"  	c None",
". 	c #FFFFFF",
"+ 	c #FEFEFE",
"@ 	c #FDFDFD",
"# 	c #FCFCFC",
"$ 	c #FAFAFA",
"% 	c #F8F8F8",
"& 	c #F9F9F9",
"* 	c #FBFBFB",
"= 	c #F6F6F6",
"- 	c #EFEFEF",
"; 	c #EBEBEB",
"> 	c #E6E6E6",
", 	c #E2E2E2",
"' 	c #DFDFDF",
") 	c #E0E0E0",
"! 	c #E3E3E3",
"~ 	c #E5E5E5",
"{ 	c #F0F0F0",
"] 	c #F2F2F2",
"^ 	c #EDEDED",
"/ 	c #D7D7D7",
"( 	c #CCCCCC",
"_ 	c #BDBDBD",
": 	c #B5B5B5",
"< 	c #ABABAB",
"[ 	c #AAAAAA",
"} 	c #A7A7A7",
"| 	c #A9A9A9",
"1 	c #A6A6A6",
"2 	c #ADADAD",
"3 	c #B1B1B1",
"4 	c #BEBEBE",
"5 	c #DADADA",
"6 	c #F4F4F4",
"7 	c #ECECEC",
"8 	c #DCDCDC",
"9 	c #D1D1D1",
"0 	c #B2B2B2",
"a 	c #9B9B9B",
"b 	c #8C8C8C",
"c 	c #787878",
"d 	c #707070",
"e 	c #656565",
"f 	c #626262",
"g 	c #606060",
"h 	c #686868",
"i 	c #797979",
"j 	c #8D8D8D",
"k 	c #A1A1A1",
"l 	c #B4B4B4",
"m 	c #CACACA",
"n 	c #DEDEDE",
"o 	c #EAEAEA",
"p 	c #C0C0C0",
"q 	c #A5A5A5",
"r 	c #919191",
"s 	c #6C6C6C",
"t 	c #5A5A5A",
"u 	c #4B4B4B",
"v 	c #3B3B3B",
"w 	c #383838",
"x 	c #2E2E2E",
"y 	c #353535",
"z 	c #2A2A2A",
"A 	c #323232",
"B 	c #3D3D3D",
"C 	c #4D4D4D",
"D 	c #5F5F5F",
"E 	c #737373",
"F 	c #D0D0D0",
"G 	c #E9E9E9",
"H 	c #EEEEEE",
"I 	c #DBDBDB",
"J 	c #C5C5C5",
"K 	c #A4A4A4",
"L 	c #858585",
"M 	c #222222",
"N 	c #262626",
"O 	c #535353",
"P 	c #F5F5F5",
"Q 	c #8E8E8E",
"R 	c #696969",
"S 	c #494949",
"T 	c #0D0D0D",
"U 	c #424242",
"V 	c #5D5D5D",
"W 	c #636363",
"X 	c #5C5C5C",
"Y 	c #404040",
"Z 	c #6A6A6A",
"` 	c #C7C7C7",
" .	c #E8E8E8",
"..	c #DDDDDD",
"+.	c #979797",
"@.	c #565656",
"#.	c #7A7A7A",
"$.	c #8A8A8A",
"%.	c #A0A0A0",
"&.	c #A8A8A8",
"*.	c #A2A2A2",
"=.	c #9C9C9C",
"-.	c #7E7E7E",
";.	c #6E6E6E",
">.	c #454545",
",.	c #9F9F9F",
"'.	c #CECECE",
").	c #BBBBBB",
"!.	c #767676",
"~.	c #8F8F8F",
"{.	c #A3A3A3",
"].	c #CBCBCB",
"^.	c #D8D8D8",
"/.	c #C2C2C2",
"(.	c #989898",
"_.	c #717171",
":.	c #C4C4C4",
"<.	c #6D6D6D",
"[.	c #898989",
"}.	c #BABABA",
"|.	c #F1F1F1",
"1.	c #F3F3F3",
"2.	c #868686",
"3.	c #474747",
"4.	c #B7B7B7",
"5.	c #161616",
"6.	c #C6C6C6",
"7.	c #818181",
"8.	c #949494",
"9.	c #E7E7E7",
"0.	c #7C7C7C",
"a.	c #555555",
"b.	c #BCBCBC",
"c.	c #D9D9D9",
"d.	c #828282",
"e.	c #B9B9B9",
"f.	c #999999",
"g.	c #808080",
"h.	c #E4E4E4",
"i.	c #666666",
"j.	c #F7F7F7",
"k.	c #D4D4D4",
"l.	c #838383",
"m.	c #D2D2D2",
"n.	c #B0B0B0",
"o.	c #AFAFAF",
"p.	c #B3B3B3",
"q.	c #E1E1E1",
"r.	c #D5D5D5",
"s.	c #C3C3C3",
"t.	c #7D7D7D",
"u.	c #CFCFCF",
"v.	c #B6B6B6",
"w.	c #AEAEAE",
"x.	c #969696",
"y.	c #777777",
"z.	c #D6D6D6",
"A.	c #959595",
"B.	c #4F4F4F",
"C.	c #909090",
"D.	c #585858",
"E.	c #9E9E9E",
"F.	c #757575",
"G.	c #1C1C1C",
"H.	c #515151",
"I.	c #000000",
"J.	c #CDCDCD",
"K.	c #ACACAC",
"L.	c #939393",
"M.	c #878787",
"N.	c #B8B8B8",
"O.	c #BFBFBF",
"P.	c #C8C8C8",
"Q.	c #9D9D9D",
"R.	c #9A9A9A",
"S.	c #929292",
"T.	c #888888",
"U.	c #D3D3D3",
"V.	c #C1C1C1",
"W.	c #7F7F7F",
"X.	c #727272",
"Y.	c #8B8B8B",
". . . . . . . . . . . . . . . . . . . . . . . . . . . . . . . . . . . . . . . . . . . . . . . . . . . . . . . . . . . . . . . . ",
". . . . . . . . . . . . . . . . . . . . . + @ # $ $ % & % & % & & * # + . . . . . . . . . . . . . . . . . . . . . . . . . . . . ",
". . . . . . . . . . . . . . . . . . . @ $ = - ; > , , ' ) ' ) ' ! ~ ; { = * @ . . . . . . . . . . . . . . . . . . . . . . . . . ",
". . . . . . . . . . . . . . . + # & ] ^ ! / ( _ : < [ } | 1 | } 2 3 4 ( 5 ~ - = # . . . . . . . . . . . . . . . . . . . . . . . ",
". . . . . . . . . . . . . + * 6 7 8 9 4 0 a b c d e e f e g e g e h i j k l m n - $ + . . . . . . . . . . . . . . . . . . . . . ",
". . . . . . . . . . . . # = o / p q r c s t u v w x y x y x y z A x B C D E r 0 F G % + . . . . . . . . . . . . . . . . . . . . ",
". . . . . . . . . . + % H I J K L f C y y z x M x z y x y x y z x N M N x w O i k m ~ % . . . . . . . . . . . . . . . . . . . . ",
". . . . . . . . . + P ! ( 2 Q R S z M T N z U u t V W g e g W V X C Y w A z z U Z a `  .* . . . . . . . . . . . . . . . . . . . ",
". . . . . . . . + = ..p +.E @.v x N A y C D #.$.a %.} 1 | 1 &.*.=.Q -.;.t >.z x v h ,.'.H @ . . . . . . . . . . . . . . . . . . ",
". . . . . . . . & ) ).$.V v A A w C W !.~.{.).]./ I ) ' ) ' ) ..^.'./.3 (.c O A M Y _.< ^.6 + . . . . . . . . . . . . . . . . . ",
". . . . . . . @ o :.b O x z y O <.[.} }.F 8 G |.P & % & % & % & = 1.^ , '.0 2.@.A M 3.-.4., $ . . . . . . . . . . . . . . . . . ",
". . . . . . . P / *.D z 5.A X 2.[ 6.^.G |.& * + . . . . . . . . . + @ & { 5 l 7.3.M z O 8.m - @ . . . . . . . . . . . . . . . . ",
". . . . . . # 9.}.0.v 5.N a.b b.^.7 = # + . . . . . . . . . . . . . . . @ 1.c.[ <.w 5.x Z < ..& . . . . . . . . . . . . . . . . ",
". . . . . . P ^.,.t z N 3.d.e.n P * + . . . . . . . . . . . . . . . . . . @ H ].f.t x N C j J ^ + . . . . . . . . . . . . . . . ",
". . . . . @ H J g.v T A h &.c.= + @ * $ & * # + . . . . . . . . . . . . . . * h.}.0.B 5.A i.&.5 j.. . . . . . . . . . . . . . . ",
". . . . . * > 4.d y N S [.` H # & ] ; ~ h.~ H P # . . . . . . . . . . . + # * { k.*.g x M >.l.4  .# . . . . . . . . . . . . . . ",
". . . . . & ' q D z z t =.^.= P 9.m.p n.o.p.J 8 - # . . . . . . . . . * 1.; h.q.r.: d.>.M x V ,.k.1.+ . . . . . . . . . . . . . ",
". . . . . = 8 ,.t x w s o.h.|.) s.a t.i.W h l.2 r.] + . . . . . . + % 9.u.v.} } 2 w.x.W A 5.v y.4.> * . . . . . . . . . . . . . ",
". . . . . = z.A.B.M y d v.h.9.:.C.X v N N M Y E n.! $ . . . . . . $ h.e.$.f C u g t.j 0.S N N D.E./ P . . . . . . . . . . . . . ",
". . . . . P ^.+.O z B F.}.' z.k V z G.5.5.T T Y [.u.6 . . . . . @ - J g.Y G.T T G.B Z -.g y 5.Y l.` - @ . . . . . . . . . . . . ",
". . . . . j./ (.H.M y ;.0 / :.l.Y 5.5.5.T T I.N d /.H @ . . . . * ! q B.T I.I.I.I.5.Y s d S z v F.).G * . . . . . . . . . . . . ",
". . . . . j.n k X x A i.} J.0 s z 5.T T I.I.I.G.e b.^ @ . . . . & 5 8.w I.I.I.I.I.I.M O Z H.z x i.2 h.$ . . . . . . . . . . . . ",
". . . . . $ ' {.X N M B.~._ &.f N T T I.I.I.I.N E J { @ . . . . % 5 r y I.I.I.I.I.I.T U R @.A y i.K., % . . . . . . . . . . . . ",
". . . . . * q.} t N 5.y _.[ k f N 5.T I.I.I.5.3.L.r.= . . . . . $ , %.S T I.I.I.I.I.T B i.O z x W &.' & . . . . . . . . . . . . ",
". . . . . * , {.H.5.I.5.B.r {.d x 5.T T T G.Y -._ G $ * * @ . . # H 4 E x I.I.I.I.I.5.u <.@.A y i.2 ! & . . . . . . . . . . . . ",
". . . . . * h.} C T I.T A #.q b a.N M z w t M.N.' 1.] 7 o H = @ . % 8 < i.z T I.I.T y Z F.H.N x R n.~ * . . . . . . . . . . . . ",
". . . . . # o 0 X G.I.I.M W } n.j i.D <.2.1 ` h.] G 9 O.).P...|.# + = / } E >.z z 3.E Q c S N B y.4 o # . . . . . . . . . . . . ",
". . . . . + { :.F.z I.I.5.B.a ` J 0 o.}.].n H j.^ m Q.!.<.L p.8 P + + = ..4 R.2.d.(.< *._.w 5.Y l.` - + . . . . . . . . . . . . ",
". . . . . . % / S.B T I.T w l.P.~ > ~ G { & @ j.I } i.A N 3.T.m H * . . $ 7 n k.m.r.J ,.f A N a.(.z.6 . . . . . . . . . . . . . ",
". . . . . . # 9.2 t 5.I.I.M e 0 ~ j.$ * + . @ ] U.C.3.5.T N E _ ; * . . . + $ = ] , p M.B.x w <.2 q.$ . . . . . . . . . . . . . ",
". . . . . . + 1.6.i x I.I.T U b m ^ * . . . + ] u.b B 5.N 3.[.m - * . . . . . + 1.z.{.i.w A O j ` H # . . . . . . . . . . . . . ",
". . . . . . . $ 8 =.C 5.I.I.N f ,.'.; * . . + P n | ;.C D d.l 8 = + . . . . + j. .J [.u x v ;.[ I = . . . . . . . . . . . . . . ",
". . . . . . . + H p !.A T I.5.w Z {.F H @ . . * ; F 0 %.[ V...1.@ . . . . @ = G k.3 i w x D.r ` 7 * . . . . . . . . . . . . . . ",
". . . . . . . . & ' [ s w M 5.G.v _.o.q.j.. . + & H > n , o = # + + . . + = , J [ x.g.i.i.b }.' = + . . . . . . . . . . . . . . ",
". . . . . . . . + 6 k.< g.D.w N 5.S Q J.|.# & % % $ % % % * % P P % # . * 7 ` f.s h W.8.} p 8 ] @ . . . . . . . . . . . . . . . ",
". . . . . . . . . @ 1...O.(.R B N B i _ > - ; ~ G - & @ # ] 9.n n 9.] # % ..&.R A w E K.m.9.6 # . . . . . . . . . . . . . . . . ",
". . . . . . . . . . + % 9.J j O N z f 1 r.5 J p.b.U.; & P ) :.K.K.:.) 6 { 9 S.H.N B i _ ~ j.+ . . . . . . . . . . . . . . . . . ",
". . . . . . . . . . . . % n [ i.A z a.x.6.).L.Z -.[ z.o 9.` x.R R x.` > ! }.c v 5.Y l.J H + . . . . . . . . . . . . . . . . . . ",
". . . . . . . . . . . . # o e.X.A 5.U -.} f.g N U #.2 ].P.*.Z w w Z *.6.:.Q.f A z O x.r.6 . . . . . . . . . . . . . . . . . . . ",
". . . . . . . . . . . . @ - ( Y.u z w e T.W.B.z x a.-.A.L.y.u z z u y.S.C.d >.M N D q n $ . . . . . . . . . . . . . . . . . . . ",
". . . . . . . . . . . . . j./ Q.D.M G.Y D.a.y 5.5.x 3.@.D.3.x 5.5.x 3.@.@.>.z G.y !.).G * . . . . . . . . . . . . . . . . . . . ",
". . . . . . . . . . . . . * > 4.X.y G.z y y M 5.T G.N x x N G.5.5.G.N x x N M M B.r '.|.+ . . . . . . . . . . . . . . . . . . . ",
". . . . . . . . . . . . . + { m Y.3.5.G.G.G.T 5.T G.N x x z N M M N z x A x y H.7.4.! & . . . . . . . . . . . . . . . . . . . . ",
". . . . . . . . . . . . . . j., p.-.B.U w Y v U U C D.D f g V t t V g W e h F.C.4.^.1.+ . . . . . . . . . . . . . . . . . . . . ",
". . . . . . . . . . . . . . @ |.z.v.x.L 0.W.7.2.Y.A.,.K } } q {.{.q } &.[ o.}.].) ] # . . . . . . . . . . . . . . . . . . . . . ",
". . . . . . . . . . . . . . . # |.~ k.J.:.m m 9 m.^.I n ) ) ) ) ) ) ) ) ) h. .{ = @ . . . . . . . . . . . . . . . . . . . . . . ",
". . . . . . . . . . . . . . . . @ % 6 { { - ] 1.= = % & & & & & & & & & & & * @ . . . . . . . . . . . . . . . . . . . . . . . . ",
". . . . . . . . . . . . . . . . . . + @ + + . . . . . . . . . . . . . . . . . . . . . . . . . . . . . . . . . . . . . . . . . . ",
". . . . . . . . . . . . . . . . . . . . . . . . . . . . . . . . . . . . . . . . . . . . . . . . . . . . . . . . . . . . . . . . ",
". . . . . . . . . . . . . . . . . . . . . . . . . . . . . . . . . . . . . . . . . . . . . . . . . . . . . . . . . . . . . . . . ",
". . . . . . . . . . . . . . . . . . . . . . . . . . . . . . . . . . . . . . . . . . . . . . . . . . . . . . . . . . . . . . . . ",
". . . . . . . . . . . . . . . . . . . . . . . . . . . . . . . . . . . . . . . . . . . . . . . . . . . . . . . . . . . . . . . . ",
". . . . . . . . . . . . . . . . . . . . . . . . . . . . . . . . . . . . . . . . . . . . . . . . . . . . . . . . . . . . . . . . ",
". . . . . . . . . . . . . . . . . . . . . . . . . . . . . . . . . . . . . . . . . . . . . . . . . . . . . . . . . . . . . . . . ",
". . . . . . . . . . . . . . . . . . . . . . . . . . . . . . . . . . . . . . . . . . . . . . . . . . . . . . . . . . . . . . . . ",
". . . . . . . . . . . . . . . . . . . . . . . . . . . . . . . . . . . . . . . . . . . . . . . . . . . . . . . . . . . . . . . . ",
". . . . . . . . . . . . . . . . . . . . . . . . . . . . . . . . . . . . . . . . . . . . . . . . . . . . . . . . . . . . . . . . ",
". . . . . . . . . . . . . . . . . . . . . . . . . . . . . . . . . . . . . . . . . . . . . . . . . . . . . . . . . . . . . . . . ",
". . . . . . . . . . . . . . . . . . . . . . . . . . . . . . . . . . . . . . . . . . . . . . . . . . . . . . . . . . . . . . . . ",
". . . . . . . . . . . . . . . . . . . . . . . . . . . . . . . . . . . . . . . . . . . . . . . . . . . . . . . . . . . . . . . . ",
". . . . . . . . . . . . . . . . . . . . . . . . . . . . . . . . . . . . . . . . . . . . . . . . . . . . . . . . . . . . . . . . ",
". . . . . . . . . . . . . . . . . . . . . . . . . . . . . . . . . . . . . . . . . . . . . . . . . . . . . . . . . . . . . . . . ",
". . . . . . . . . . . . . . . . . . . . . . . . . . . . . . . . . . . . . . . . . . . . . . . . . . . . . . . . . . . . . . . . ",
". . . . . . . . . . . . . . . . . . . . . . . . . . . . . . . . . . . . . . . . . . . . . . . . . . . . . . . . . . . . . . . . "};
