/* XPM */
static char * player_down_idle_1_xpm[] = {
"64 64 2 1",
" 	c None",
".	c #000000",
"                                                                ",
"                                                                ",
"                                                                ",
"                                                                ",
"                                                                ",
"                                                                ",
"                                                                ",
"                                                                ",
"                                                                ",
"                        ...........                             ",
"                   ...................                          ",
"                ........................                        ",
"           .............................                        ",
"          ...............................    ..                 ",
"          ...............................   ....                ",
"          ............             ......  .....                ",
"          .........                ......  ......               ",
"          ........                 ......  ......               ",
"          .......                  ......  ......               ",
"           ......                 .......  ......               ",
"            ......              ........    .....               ",
"            ......            .........     .....               ",
"             .....           .........      .....               ",
"             ......        ..........       ......              ",
"             ......      ...........        ......              ",
"              .....    ............         ......              ",
"              ...................           ......              ",
"              .................             ......              ",
"               ..............                .....              ",
"               .............                 .....              ",
"               ...........                   .....              ",
"                .......                      .....              ",
"                .......                      .....              ",
"                 ......                      .....              ",
"                 ......                      .....              ",
"                 .......                     .....              ",
"                  ......                     .....              ",
"                  .......                    ......             ",
"                   ......              ..   .......             ",
"                   .......           .................          ",
"                    ......          .....................       ",
"                     ......        .......................      ",
"                     ......        .......................      ",
"                      ......       ........................     ",
"                      ......        .......   .   .........     ",
"                      ......        .......        .......      ",
"                       .....         .......      ........      ",
"                        ...           ......     ........       ",
"                                      .......   ........        ",
"                                       ................         ",
"                                       ...............          ",
"                                        .............           ",
"                                         ...........            ",
"                                          .........             ",
"                                          ........              ",
"                                           ......               ",
"                                            ....                ",
"                                                                ",
"                                                                ",
"                                                                ",
"                                                                ",
"                                                                ",
"                                                                ",
"                                                                "};
