/* XPM */
static char * player_left1_xpm[] = {
"64 64 92 2",
"  	c None",
". 	c #BD9B75",
"+ 	c #663931",
"@ 	c #8F563B",
"# 	c #DACFA3",
"$ 	c #D1BA8A",
"% 	c #EDEBCB",
"& 	c #E7E4BB",
"* 	c #D5C496",
"= 	c #E0D8AE",
"- 	c #C2BA98",
"; 	c #E7E3BA",
"> 	c #D9A066",
", 	c #E3DBB0",
"' 	c #C6AE71",
") 	c #EEC39A",
"! 	c #E9B47F",
"~ 	c #45283C",
"{ 	c #F6D9BD",
"] 	c #3F3F74",
"^ 	c #CBDBFC",
"/ 	c #ECEACA",
"( 	c #ECEAC9",
"_ 	c #F6CC4D",
": 	c #FFEE6C",
"< 	c #D4C192",
"[ 	c #D9C591",
"} 	c #D1BB8B",
"| 	c #D8AA74",
"1 	c #FFFB6C",
"2 	c #DCC68C",
"3 	c #D3BE8F",
"4 	c #C9AD59",
"5 	c #E2CE92",
"6 	c #D7C89B",
"7 	c #E1D9AE",
"8 	c #CDB682",
"9 	c #E2DAAE",
"0 	c #E2DAAF",
"a 	c #675C3A",
"b 	c #3A3527",
"c 	c #E8D79E",
"d 	c #D0B988",
"e 	c #ECD58F",
"f 	c #D0B887",
"g 	c #E9C973",
"h 	c #D8C99C",
"i 	c #EAC970",
"j 	c #F0D17B",
"k 	c #D4C394",
"l 	c #EECD71",
"m 	c #D5C395",
"n 	c #EFCD6B",
"o 	c #D6C698",
"p 	c #F3D684",
"q 	c #D7C79A",
"r 	c #F2D992",
"s 	c #E7CE84",
"t 	c #E6CE89",
"u 	c #D7C89A",
"v 	c #E4CE8D",
"w 	c #D8C89B",
"x 	c #DAD0A4",
"y 	c #E2D9AE",
"z 	c #DCD2A7",
"A 	c #E9CE81",
"B 	c #DFD6AB",
"C 	c #DED4A8",
"D 	c #CCB47F",
"E 	c #DDD0A4",
"F 	c #D7C99B",
"G 	c #DABF8F",
"H 	c #D9B886",
"I 	c #2E3C3F",
"J 	c #D7B07D",
"K 	c #D5C597",
"L 	c #475A5E",
"M 	c #D8AF7B",
"N 	c #D6C597",
"O 	c #E4DEB4",
"P 	c #E0D7AC",
"Q 	c #D0B989",
"R 	c #DED4A9",
"S 	c #CBB47E",
"T 	c #CAB27B",
"U 	c #E5E0B7",
"V 	c #E0D9AE",
"W 	c #3A211C",
"X 	c #CCB47E",
"Y 	c #EAE5C4",
"Z 	c #BAA47A",
"` 	c #A88967",
". . . . . . . . . . . . . . . . . . . . . . . . . . + + + + + + + + + . . + . . . . . . . . . . . . . . . . . . . . . . . . . . ",
". . . . . . . . . . . . . . . . . . . . . . . . . + @ + + @ + @ @ @ + @ @ . . . . . . . . . . . . . . . . . . . . . . . . . . . ",
". . # $ $ % % # # & & * * $ $ $ & & * * * * # * + @ @ @ + + @ + + @ @ + @ @ # # = & & * * $ $ $ & & * * * * # # * * & & # # . . ",
". . # $ $ % % # # & & * * $ $ $ & & * * * * # + + @ @ @ @ + @ @ @ + @ + + @ + # + - ; * * $ $ $ & & * * * * # # * * & & # # . . ",
". . & * * # # * * # # # # # # # $ $ & & & & * * + @ + + @ + + @ @ + @ @ + + + + # # # # # # # # $ $ & & & & * * * * $ $ & & . . ",
". . & * * # # * * # # # # # # # $ $ & & & & * * + + > > > + @ + @ @ + @ + @ @ + # # # # # # # # $ $ & & & & * * * * $ $ & & . . ",
". . $ & & # # , , * * , , $ $ $ $ $ ' ' $ $ # * > ) ) ) ) > + + + @ + @ + + + + * * * , , $ $ $ $ $ ' ' $ $ # # * * , , , , . . ",
". . $ & & # # , , * * , , $ $ $ $ $ ' ' $ $ # * ! ) ) ~ @ { ! + + @ + @ + + @ + * * * , , $ $ $ $ $ ' ' $ $ # # * * , , , , . . ",
". . ' $ $ * * # # # # , , # # # , , # # , , * # ! @ ~ ! ) ) ! + + > ! + @ + @ + # # # , , # # # , , # # , , * * # # , , $ $ . . ",
". . ' $ $ * * # # # # , , # # # , , # # , , * # ! ~ ~ ~ @ ) ! + > ) { > @ + + + # # # , , # # # , , # # , , * * # # , , $ $ . . ",
". . * # # # # * * , , # # * * * # # , , , , # $ ! ] ^ ^ ! ) ) ! ! ) ) ! + @ + * , , , # # * * * # # , , , , # # $ $ ' ' $ $ . . ",
". . * # # # # * * , , # # * * * # # , , , , # ! ! ) ) ) ) ) ) ) ) ) ) ! @ + + * , , , # # * * * # # , , , , # # $ $ ' ' $ $ . . ",
". . # * * # # # # $ $ * * $ $ $ # # , , % / * > ) ) ) ) ) ) ) ) ) ) ! > + + # # $ $ $ * * $ $ $ # # , , % % * * * * # # & & . . ",
". . # * * # # # # $ $ * * $ $ $ # # , , % ( * > ) ) ) ) ) ) ) ) ! ! > _ _ _ _ _ $ $ $ * * $ $ $ # # , , % % * * * * # # & & . . ",
". . # & & # # * * * * $ $ ' ' ' $ $ % % $ $ * # ! ) ) ) ) ) ) ! > _ _ _ _ _ : _ * * * $ $ ' ' ' $ $ % % $ $ * * # # # # * * . . ",
". . # & & # # * * * * $ $ ' ' ' $ $ % % $ $ * # > > ) ) ) { ! ! _ _ : : : : : _ * * * $ $ ' ' ' $ $ % % $ $ * * # # # # * * . . ",
". . * # # , , & & * * , , $ $ $ $ $ ' ' $ $ $ < > ! ) ) ! ! > > _ _ _ : : : : _ [ * * , , $ $ $ $ $ ' ' $ $ $ $ * * , , , , . . ",
". . * # # , , & & * * , , $ $ $ $ $ ' ' $ $ $ } * | > > > : _ _ : : _ : 1 1 1 _ 2 * * , , $ $ $ $ $ ' ' $ $ $ $ * * , , , , . . ",
". . , # # & & $ $ # # $ $ ' ' ' $ $ * * # # # # * 3 $ _ 4 : _ : : : : _ : _ _ _ 5 # # $ $ ' ' ' $ $ * * # # # # * * $ $ ' ' . . ",
". . , # # & & $ $ # # $ $ ' ' ' $ $ * * # # # # * < $ _ 4 : _ : : : : _ _ _ _ $ 6 # # $ $ ' ' ' $ $ * * # # # # * * $ $ ' ' . . ",
". . * * * ' ' $ $ ' ' # # # # # , , # # * * # # , 7 # _ 4 : _ : : : : : _ _ $ $ 8 ' ' # # # # # , , # # * * # # , , # # * * . . ",
". . * * * ' ' $ $ ' ' # # # # # , , # # * * # # , 9 _ _ 4 : _ : : : : : _ _ $ $ $ ' ' # # # # # , , # # * * # # , , # # * * . . ",
". . * # # * * $ $ $ $ , , , , , # # * * # # , , # # _ : 4 : _ 1 : : : 1 _ _ $ $ $ $ $ , , , , , # # * * # # , , # # # # * * . . ",
". . * # # * * $ $ $ $ , , , , , # # * * # # , , # # _ : 4 1 _ 1 1 1 1 1 _ _ $ $ $ $ $ , , , , , # # * * # # , , # # # # * * . . ",
". . # % % * * # # , , % % & & & * * # # $ $ * * , 0 _ : a 1 _ 1 1 1 1 1 _ _ # # # , , % % & & & * * # # $ $ * * , , * * # # . . ",
". . # % % * * # # , , % % & & & * * # # $ $ * * , 0 _ : b 1 _ 1 1 1 1 1 _ _ # # # , , % % & & & * * # # $ $ * * , , * * # # . . ",
". . * $ $ % % , , # # , , ' ' ' , , $ $ $ $ , , & & _ 1 b 1 _ : 1 1 1 : _ _ , , , # # , , ' ' ' , , $ $ $ $ , , & & & & # # . . ",
". . * $ $ % % , , # # , , ' ' ' , , $ $ $ $ , , & & _ 1 1 1 _ : 1 1 1 : _ c , , , # # , , ' ' ' , , $ $ $ $ , , & & & & # # . . ",
". . # * * $ $ # # , , ' ' $ $ $ # # , , , , % % $ d _ 1 1 1 _ : 1 1 1 : _ e , # # , , ' ' $ $ $ # # , , , , % % $ $ ' ' , , . . ",
". . # * * $ $ # # , , ' ' $ $ $ # # , , , , % % $ f _ 1 1 1 _ : 1 1 1 : _ g * # # & & ' ' $ $ $ # # , , , , % % $ $ ' ' , , . . ",
". . # $ $ % % # # & & * * $ $ $ & & * * * * # # * h _ 1 1 1 _ : 1 1 1 : _ i * # # & & ' ' $ $ $ & & * * * * # # * * & & # # . . ",
". . # $ $ % % # # & & * * $ $ $ & & * * * * # # * h _ 1 1 1 _ : 1 1 1 : _ j , * * & & ' ' $ $ $ & & * * * * # # * * & & # # . . ",
". . $ & & # # , , * * , , $ $ $ $ $ ' ' $ $ * * * k _ 1 1 1 _ : 1 1 1 : _ l # * * & & & & $ $ $ # # , , * * * * * * $ $ # # . . ",
". . $ & & # # , , * * , , $ $ $ $ $ ' ' $ $ * * * m _ 1 1 1 _ : 1 1 1 : _ n # , , & & & & $ $ $ # # , , * * * * * * $ $ # # . . ",
". . # $ $ % % # # & & * * $ $ $ & & * * * * # # * o _ 1 1 1 _ : 1 1 1 : _ p % # # & & * * $ $ $ & & * * * * # # * * & & # # . . ",
". . # $ $ % % # # & & * * $ $ $ & & * * * * # # * q _ 1 : : _ 1 1 1 1 1 _ r % # # & & * * $ $ $ & & * * * * # # * * & & # # . . ",
". . & * * # # * * # # # # # # # $ $ & & & & * * * m _ 1 : : _ 1 1 1 1 1 _ s # * * # # # # # # # $ $ & & & & * * & & $ $ & & . . ",
". . & * * # # * * # # # # # # # $ $ & & & & * * * m _ : : : _ 1 1 1 1 1 _ t # * * # # # # # # # $ $ & & & & * * & & $ $ & & . . ",
". . $ & & # # , , * * , , $ $ $ $ $ ' ' $ $ # # * u _ : : : _ _ 1 1 1 1 _ v # , , * * , , $ $ $ $ $ ' ' $ $ # # * * , , , , . . ",
". . $ & & # # , , * * , , $ $ $ $ $ ' ' $ $ # # * w _ : : : > _ 1 1 1 1 _ 5 x , , * * , , $ $ $ $ $ ' ' $ $ # # * * , , , , . . ",
". . ' $ $ * * # # # # , , # # # , y # # , , * * # z _ : : : > ! _ 1 1 _ _ _ A # # # # , , # # # , , # # , , * * # # , , $ $ . . ",
". . ' $ $ * * # # # # , , # # # , B # # , , * * # C _ : : : > ! _ _ _ ! > _ # # # # # , , # # # , , # # , , * * # # , , $ $ . . ",
". . * # # # # * * , , # # * * * , B # # , , # # $ D _ : : > > ) ! ! ! ! > _ [ * * , , # # * * * # # , , , , # # $ $ ' ' $ $ . . ",
". . * # # # # * * , , # # * * * , , , , , , # # $ D _ _ > ) > ) ) ) ) ) > _ 2 * * , , # # * * * # # , , , , # # $ $ ' ' $ $ . . ",
". . # * * # # # # $ $ * * $ $ $ # E , , % % * * * F _ _ > ) > ) ) ) ) ) ) > G # # $ $ * * $ $ $ # # , , % % * * * * # # & & . . ",
". . # * * # # # # $ $ * # # $ $ , h * * % % * * * 6 _ _ > ! > ) ) ) ) ) ) > H # # $ $ * * $ $ $ # # , , % % * * * * # # & & . . ",
". . # & & # # * * * * $ $ $ # # * * * * $ $ * * # # _ _ I > > ) ) ) ) ) ! > J * * * * $ $ ' ' ' $ $ % % $ $ * * # # # # * * . . ",
". . # & & # # * * * * $ $ $ # # # # # # $ $ * * # # # K I L > ) ) ) ) ! > > M * * * * $ $ ' ' ' $ $ % % $ $ * * # # # # * * . . ",
". . * # # , , & & * * , $ $ * * * N # # $ $ $ $ * * , , I L > ! ! ! ! > > , O & & * * , , $ $ $ $ $ ' ' $ $ $ $ * * , , , , . . ",
". . * # # , , & & * * , $ $ * * # # , , $ $ $ $ * * , , I L L > > > > L I , O & & * * , , $ $ $ $ $ ' ' $ $ $ $ * * , , , , . . ",
". . , # # & & $ $ # # $ $ $ # # # # , , # # # # * * $ f I L L L L L L L I & P $ $ # # $ $ ' ' ' $ $ * * # # # # * * $ $ ' ' . . ",
". . , # # & & $ $ # # $ $ $ # # * * $ $ # # # # * * $ Q I L L L L L L L I & R $ $ # # $ $ ' ' ' $ $ * * # # # # * * $ $ ' ' . . ",
". . * * * ' ' $ $ ' ' # , , * * * * $ $ * * # # , , # # I L L L L L L I I ' S $ $ ' ' # # # # # , , # # * * # # , , # # * * . . ",
". . * * * ' ' $ $ ' ' # , , * * ' ' $ $ * * # # , , # # I L L L L L L I I ' T $ $ ' ' # # # # # , , # # * * # # , , # # * * . . ",
". . * # # * * $ $ $ $ , # # ' ' ' ' $ $ # # , , # # # # I L L L L L L I * * k $ $ $ $ , , , , , # # * * # # , , # # # # * * . . ",
". . * # # * * $ $ $ $ , # # ' ' % % $ $ # # , , # # # # I L L L L L L I * * m $ $ $ $ , , , , , # # * * # # , , # # # # * * . . ",
". . # % % * * # # , , % * * % % % % $ $ $ $ * * , , * K I L L L L L I I * * * # # , , % % & & & * * # # $ $ * * , , * * # # . . ",
". . # % % * * # # , , % * * % % , , # # $ $ * * , , * K I L L L L L I % * * * # # , , % % & & & * * # # $ $ * * , , * * # # . . ",
". . * $ $ % % , , # # , , , , , , , # # $ $ , , & & & U I L L L L L I $ % % % , , # # , , ' ' ' , , $ $ $ $ , , & & & & # # . . ",
". . * $ $ % % , , # # , , , , , , , # # # $ , , & & & V W W W W W W W $ % % % , , # # , , ' ' ' , , $ $ $ $ , , & & & & # # . . ",
". . # * * $ $ # # , , ' # # , , , , # # # , % % $ X ' , W W W W W W W W $ $ $ # # , , ' ' $ $ $ # # , , , , % % $ $ ' ' , , . . ",
". . # * * $ $ # # , , ' # # # # , , , , , , % Y $ ' W W W W W W W W W W Z $ $ # # , , ' ' $ $ $ # # , , , , % % $ $ ' ' , , . . ",
". . . . . . . . . . . . . . . . . . . . . . . . W W W W W W W W W W W W ` . . . . . . . . . . . . . . . . . . . . . . . . . . . ",
". . . . . . . . . . . . . . . . . . . . . . . . W W W W W W W W W W W W ` . . . . . . . . . . . . . . . . . . . . . . . . . . . "};
