/* XPM */
static char * player_left2_xpm[] = {
"64 64 90 1",
" 	c None",
".	c #BD9B75",
"+	c #663931",
"@	c #DACFA3",
"#	c #D1BA8A",
"$	c #EDEBCB",
"%	c #E7E4BB",
"&	c #D5C496",
"*	c #D6C89D",
"=	c #C7AD84",
"-	c #8F563B",
";	c #C5AA83",
">	c #D7C89B",
",	c #DACEA2",
"'	c #E1DAB0",
")	c #E3DBB0",
"!	c #C6AE71",
"~	c #D9A066",
"{	c #D8CA9D",
"]	c #EEC39A",
"^	c #E9B47F",
"/	c #45283C",
"(	c #F6D9BD",
"_	c #D9CCA0",
":	c #D9CDA1",
"<	c #E1D9AE",
"[	c #3F3F74",
"}	c #CBDBFC",
"|	c #D6C698",
"1	c #D4BF90",
"2	c #D9AB75",
"3	c #F6CC4D",
"4	c #D5C395",
"5	c #FFEE6C",
"6	c #D1BB8B",
"7	c #D6C699",
"8	c #D9CEA1",
"9	c #FFFB6C",
"0	c #C9AD59",
"a	c #E2DAAF",
"b	c #D8CB9E",
"c	c #CCB983",
"d	c #EFC95D",
"e	c #F1CD65",
"f	c #E2D9AE",
"g	c #D9CC9F",
"h	c #675C3A",
"i	c #DED5AA",
"j	c #3A3527",
"k	c #EDCD73",
"l	c #E3DAAF",
"m	c #F2CF6D",
"n	c #D7CB9C",
"o	c #DDD4A8",
"p	c #DAD0A2",
"q	c #C7AF73",
"r	c #DACCA0",
"s	c #E1D8AD",
"t	c #D3C293",
"u	c #DFD3A7",
"v	c #DBD1A5",
"w	c #E6E2B8",
"x	c #E5E1B8",
"y	c #D7C698",
"z	c #CAB57C",
"A	c #DCCFA2",
"B	c #E2D9AD",
"C	c #D8CC9F",
"D	c #DBD0A4",
"E	c #D2C28F",
"F	c #D2C391",
"G	c #D7C79A",
"H	c #2E3C3F",
"I	c #475A5E",
"J	c #DCB17E",
"K	c #E6E2B9",
"L	c #D7C998",
"M	c #E5E0B6",
"N	c #CFBC89",
"O	c #D0C08B",
"P	c #55574D",
"Q	c #D3C192",
"R	c #DFD5AE",
"S	c #CBB67D",
"T	c #D4C695",
"U	c #3A211C",
"V	c #DFD4AE",
"W	c #BF9E77",
"X	c #C4AA72",
"Y	c #C8AD81",
"................................................................",
"...........................+++++++++..+.........................",
"..@##$$@@%%&&###%%&&&&@*=.+-++-+---+--.;@%%&&###%%&&&&@@&&%%@@..",
"..@##$$@@%%&&###%%&&&&@@&+---++-++--+--@@%%&&###%%&&&&@@&&%%@@..",
"..%&&@@&&@@@@@@@##%%%%>,++----+---+-++-+@+'@@@@@##%%%%&&&&##%%..",
"..%&&@@&&@@@@@@@##%%%%&&&+-++-++--+--++++@@@@@@@##%%%%&&&&##%%..",
"..#%%@@))&&))#####!!##@>&++~~~+-+--+-+--+{&))#####!!##@@&&))))..",
"..#%%@@))&&))#####!!##@@&~]]]]~+++-+-++++&&))#####!!##@@&&))))..",
"..!##&&@@@@))@@@))@@))&>&^]]/-(^++-+-++-+_@))@@@))@@))&&@@))##..",
"..!##&&@@@@))@@@))@@))&&@^-/^]]^++~^+-+-+@@))@@@))@@))&&@@))##..",
"..&@@@@&&))@@&&&@@))))@:@^///-]^+~](~-+++<)@@&&&@@))))@@##!!##..",
"..&@@@@&&))@@&&&@@))))@@#^[}}^]]^^]]^+-+&))@@&&&@@))))@@##!!##..",
"..@&&@@@@##&&###@@))$$&|^^]]]]]]]]]]^-++&1#&&###@@))$$&&&&@@%%..",
"..@&&@@@@##&&###@@))$$&&~]]]]]]]]]]^~++@@##&&###@@))$$&&&&@@%%..",
"..@%%@@&&&&##!!!##$$##&&2]]]]]]]]^^~333334&##!!!##$$##&&@@@@&&..",
"..@%%@@&&&&##!!!##$$##&&@^]]]]]]^~3333353&&##!!!##$$##&&@@@@&&..",
"..&@@))%%&&))#####!!###67~~]]](^^33555553&&))#####!!####&&))))..",
"..&@@))%%&&))#####!!####&~^]]^^~~33355553&&))#####!!####&&))))..",
"..)@@%%##@@##!!!##&&@@@8&&~~~~533553599938@##!!!##&&@@@@&&##!!..",
"..)@@%%##@@##!!!##&&@@@@&&##3053555535333@@##!!!##&&@@@@&&##!!..",
"..&&&!!##!!@@@@@))@@&&@@a),b305355553333#c!@@@@@))@@&&@@))@@&&..",
"..&&&!!##!!@@@@@))@@&&@@))@@3053555553d##!!@@@@@))@@&&@@))@@&&..",
"..&@@&&####)))))@@&&@@))@@@33053555553d####)))))@@&&@@))@@@@&&..",
"..&@@&&####)))))@@&&@@))@@@35053955593e####)))))@@&&@@))@@@@&&..",
"..@$$&&@@))$$%%%&&@@##&&)f{35093999993eg,))$$%%%&&@@##&&))&&@@..",
"..@$$&&@@))$$%%%&&@@##&&))&35h93999993e@@))$$%%%&&@@##&&))&&@@..",
"..&##$$))@@))!!!))####))%%i35j93999993kl)@@))!!!))####))%%%%@@..",
"..&##$$))@@))!!!))####))%%%39j93599953m))@@))!!!))####))%%%%@@..",
"..@&&##@@))!!###@@))))$$#6n39993599953)o@))!!###@@))))$$##!!))..",
"..@&&##@@))!!###@@))))$$##!39993599953&@@%%!!###@@))))$$##!!))..",
"..@##$$@@%%&&###%%&&&&@@&&p39993599953&@@%%!!###%%&&&&@@&&%%@@..",
"..@##$$@@%%&&###%%&&&&@@&&%39993599953)7&%%!!###%%&&&&@@&&%%@@..",
"..#%%@@))&&))#####q!##&&&&r39993599953@&&%%%%###@@))&&&&&&##@@..",
"..#%%@@))&&))#####!!##&&&&#39993599953@s)%%%%###@@))&&&&&&##@@..",
"..@##$$@@%%&&###%%t&&&@@&&u39993599953$v@%%&&###%%&&&&@@&&%%@@..",
"..@##$$@@%%&&###%%&&&&@@&&w39993599953$@@%%&&###%%&&&&@@&&%%@@..",
"..%&&@@&&@@@@@@@##x%%%&&&&y39553999993@|&@@@@@@@##%%%%&&%%##%%..",
"..%&&@@&&@@@@@@@##%%%%&&&&#39553999993@&&@@@@@@@##%%%%&&%%##%%..",
"..#%%@@))&&))#####z!##@@&&A35553999993@B)&&))#####!!##@@&&))))..",
"..#%%@@))&&))#####!!##@@&&)35553399993@))&&))#####!!##@@&&))))..",
"..!##&&@@@@))@@@))C@))&&@@)3555~3999937D@@@))@@@))@@))&&@@))##..",
"..!##&&@@@@))@@@))@@))&&@@)3555~^399333@@@@))@@@))@@))&&@@))##..",
"..&@@@@&&))@@&&&))@@))@@##E3555~^333^~3|&))@@&&&@@))))@@##!!##..",
"..&@@@@&&))@@&&&))f)))@@##!355~~]^^^^~3&&))@@&&&@@))))@@##!!##..",
"..@&&@@@@##&&###@#))$$&&&&F33~]~]]]]]~38@##&&###@@))$$&&&&@@%%..",
"..@&&@@@@##&@@##))G&$$&&&&@33~]~]]]]]]~@@##&&###@@))$$&&&&@@%%..",
"..@%%@@&&&&###@@&&&&##&&@@@33~^~]]]]]]~|&&&##!!!##$$##&&@@@@&&..",
"..@%%@@&&&&###@@@@8@##&&@@@33H~~]]]]]^~&&&&##!!!##$$##&&@@@@&&..",
"..&@@))%%&&)##&&&&@@####&&s@&HI~]]]]^~JK%&&))#####!!####&&))))..",
"..&@@))%%&&)##&&@@f)####&&)))HI~^^^^~~)%%&&))#####!!####&&))))..",
"..)@@%%##@@###@@@@))@@@@&&##LHII~~~~IHM##@@##!!!##&&@@@@&&##!!..",
"..)@@%%##@@###@@&&1#@@@@&&##!HIIIIIIIH%##@@##!!!##&&@@@@&&##!!..",
"..&&&!!##!!@))&&&&##&&@@))@@NHIIIIIIIHO##!!@@@@@))@@&&@@))@@&&..",
"..&&&!!##!!@))&&!!##&&@@))@@&HIIIIIIHH!##!!@@@@@))@@&&@@))@@&&..",
"..&@@&&####)@@!!!!##@@))@@@@&HIIIIIIHPQ####)))))@@&&@@))@@@@&&..",
"..&@@&&####)@@!!$$##@@))@@@@&HIIIIIIH&&####)))))@@&&@@))@@@@&&..",
"..@$$&&@@))$&&$$$$####&&))&&bHIIIIIIH&&@@))$$%%%&&@@##&&))&&@@..",
"..@$$&&@@))$&&$$))@@##&&))&&@HIIIIIHH&&@@))$$%%%&&@@##&&))&&@@..",
"..&##$$))@@)))))))@@##))%%%%@HIIIIIH$R$))@@))!!!))####))%%%%@@..",
"..&##$$))@@)))))))@@@#))%%%%@HIIIIIH#$$))@@))!!!))####))%%%%@@..",
"..@&&##@@))!@@))))@@@)$$##ST<UUUUUUU#V#@@))!!###@@))))$$##!!))..",
"..@&&##@@))!@@@@))))))$$##!!)UUUUUUUU##@@))!!###@@))))$$##!!))..",
".........................WXUUUUUUUUUUY..........................",
".........................UUUUUUUUUUUU..........................."};
