/* XPM */
static char * player_up2_xpm[] = {
"64 64 87 1",
" 	c None",
".	c #BD9B75",
"+	c #663931",
"@	c #C3A680",
"#	c #C3A780",
"$	c #8F563B",
"%	c #DACFA3",
"&	c #E7E4BB",
"*	c #D5C496",
"=	c #D1BA8A",
"-	c #E3DEB6",
";	c #DDD3AB",
">	c #7D5845",
",	c #D5C69B",
"'	c #C7AE86",
")	c #C2A47C",
"!	c #C7AD84",
"~	c #C3A77E",
"{	c #EDEBCB",
"]	c #E0D8B0",
"^	c #E3DBB0",
"/	c #C6AE71",
"(	c #CFB788",
"_	c #D3BD8E",
":	c #D9A066",
"<	c #EEC39A",
"[	c #E7E1BA",
"}	c #F6CC4D",
"|	c #FFEE6C",
"1	c #FFFB6C",
"2	c #DACAA1",
"3	c #CEB783",
"4	c #FFE06C",
"5	c #DBC183",
"6	c #C0A274",
"7	c #C2A573",
"8	c #D9B972",
"9	c #D6B167",
"0	c #C7AB80",
"a	c #C5A474",
"b	c #CDA96D",
"c	c #DED2A6",
"d	c #C5AA83",
"e	c #CAA66F",
"f	c #CDB486",
"g	c #C9A873",
"h	c #DCD0A7",
"i	c #D4AF68",
"j	c #DDD2A8",
"k	c #CBAD7B",
"l	c #DCCFA6",
"m	c #C2A47E",
"n	c #C8B076",
"o	c #D7C99C",
"p	c #D4C092",
"q	c #D3C091",
"r	c #E3DBAF",
"s	c #E9B47F",
"t	c #1E3D43",
"u	c #395459",
"v	c #2E3C3F",
"w	c #475A5E",
"x	c #D8CA9D",
"y	c #E4DEBA",
"z	c #D6C799",
"A	c #DACEA2",
"B	c #3A211C",
"C	c #CCBC90",
"D	c #D1CAA2",
"E	c #DCD4AB",
"F	c #D5CDA4",
"G	c #DED4A7",
"H	c #DDD2A5",
"I	c #DBD0A4",
"J	c #382522",
"K	c #AE9D7D",
"L	c #CFC69F",
"M	c #C7BF9B",
"N	c #CCC59F",
"O	c #C3A772",
"P	c #CFBC93",
"Q	c #CDB88F",
"R	c #B29976",
"S	c #BE9D75",
"T	c #452E24",
"U	c #BFA17B",
"V	c #B69570",
".........................++++++++++++...........................",
"......................@#+$$$$$$$$$$+$+..........................",
"..%%&&**%%****&&===**-;>$$+$+$$$+++$$$+>,')!~*&&===**&&%%{{==%..",
"..%%&&**%%****&&===**&%++$+$$++$$$$+$++*******&&===**&&%%{{==%..",
"..&&==****&&&&==%%%%%%+$$++$$$$+$$$$$$$+**&&&&==%%%%%%%**%%**&..",
"..&&==****&&&&==%%%%%%*+$$$++$$+$$$+$++++%.]&&==%%%%%%%**%%**&..",
"..^^^^**%%==//=====^^*++++++$+++$+$+$+$+%%(=//=====^^**^^%%&&=..",
"..^^^^**%%==//=====^^%$$$$+$$+$$+$++$$$+**_=//=====^^**^^%%&&=..",
"..==^^%%**^^%%^^%%%^^%:++$$$+$+$$+$$++$:**^^%%^^%%%^^%%%%**==/..",
"..==^^%%**^^%%^^%%%^^^:$+$$+$$$+$$++$++:%%^^%%^^%%%^^%%%%**==/..",
"..==//==%%^^^^%%***%%^:<$+$$++$+$+$+$$<:%%^^^^%%***%%^^**%%%%*..",
"..==//==%%^^^^%%***%%=::$++$$+$++$$$++::**[^^^%%***%%^^**%%%%*..",
"..&&%%****{{^^%%===**==:<$+}}}}}}}}}$<:***{{^^%%===**==%%%%**%..",
"..&&%%****{{^^%%===***}}}}}}|1111||}}}}}**2{^^%%===**==%%%%**%..",
"..**%%%%**=={{==///==}111111111|||||||}}}*=={{==///==****%%&&%..",
"..**%%%%**=={{==//3^^}111111||||||||||||}==={{==///==****%%&&%..",
"..^^^^**====//=====^}}}|111||||||||||||}}4=567=====^^**&&^^%%*..",
"..^^^^**====//==//4}|||}}4|11111|||||}}|||4}890====^^**&&^^%%*..",
"..//==**%%%%**==/}}|1|||||4}}}}}}}}}||||11|4}ab=///==%%==&&%%^..",
"..//==**%%%%**=c%}|11111|||||||||||||111111|}def///==%%==&&%%^..",
"..**%%^^%%**%%^^%}11111111||||||||||111111114%gh%%%%%//==//***..",
"..**%%^^%%**%%^%^}111|111111111111111111|1114*%^%%%%%//==//***..",
"..**%%%%^^%%**%%}|11|}111111111111111111}|11|}%ij^^^^====**%%*..",
"..**%%%%^^%%**%*}111|}111111111111111111}|111}*kl^^^^====**%%*..",
"..%%**^^**==%%**}111|}111111111111111111}|111}**m&&{{^^%%**{{%..",
"..%%**^^**==%%*^}111|}111111111111111111}|111}^^]&&{{^^%%**{{%..",
"..%%&&&&^^====^^}111|}111111111111111111}|1114^^///^^%%^^{{==*..",
"..%%&&&&^^====^%}111|4|1111111111111111|4|111}%%n//^^%%^^{{==*..",
"..^^//=={{^^^^%%}1111|411111111111111114||111}%%===//^^%%==**%..",
"..^^//=={{^^^^%&41111|}1111111111111111}|1111}&&===//^^%%==**%..",
"..%%&&**%%****&&411111}1111111111111111}|1111}&&===**&&%%{{==%..",
"..%%&&**%%****&%411111}1111111111111111}|1111}=====**&&%%{{==%..",
"..%%==******^^%%411111}1111111111111111}|1111}=====^^**^^%%&&=..",
"..%%==******^^%&411111}1111111111111111}11111}&&===^^**^^%%&&=..",
"..%%&&**%%****&&411111}1111111111111111}11111}&&===**&&%%{{==%..",
"..%%&&**%%****&=41111|}11111|||11111111}11111}==o==**&&%%{{==%..",
"..&&==&&**&&&&==41111|}1111||||||||1111}|1111}==%%%%%%%**%%**&..",
"..&&==&&**&&&&==}}111|}1|||||||||||||11}|111}4==p%%%%%%**%%**&..",
"..^^^^**%%==//==}1}}1|}1|||||||||||||11}|1}}1}=====^^**^^%%&&=..",
"..^^^^**%%==//=^}111|4}1|||||||||||||11}4|111}^^%q=^^**^^%%&&=..",
"..==^^%%**^^%%^^41|||}||111||||||||||1||}|||1}^^%%%^^%%%%**==/..",
"..==^^%%**^^%%r%4}4||4}}||11||||||||||}}4||4}4^^***^^%%%%**==/..",
"..==//==%%^^^^%%s<}}4|tu}}||||||||||}}ut|4}}s:^^***%%^^**%%%%*..",
"..==//==%%^^^^%::<<<4}vuuw}}}}}}}}}}wuuv}4<<s::%===%%^^**%%%%*..",
"..&&%%****{{^^::<<<<<svuwwwwwwwwwwwwwwuvs<<<<s::==%**==%%%%**%..",
"..&&%%****{{^^:s<<<<<:vuwwwwwwwwwwwwwwuv<<<<<<s:%%x%*==%%%%**%..",
"..**%%%%**=={{::s<<<<<vuwwwwwuvvwwwwwwuv<<<<<<::%%===****%%&&%..",
"..**%%%%**=={y=::s<<<<vuwwwwuv//vuwwwwuv<<<<s::***===****%%&&%..",
"..^^^^**====//==::s<<:vuwwwwuv//vuwwwwuv:<<<::%%**==^**&&^^%%*..",
"..^^^^**====//==/::::%vuwwwwuv**vuwwwwuv%::::^%%z*==^**&&^^%%*..",
"..//==**%%%%**==///==%twwwwwuv**vuwwwwut%%%%==*A%%===%%==&&%%^..",
"..//==**%%%%**==///=%tuwwwwwuv%%vuwwwwwut%**==**%%===%%==&&%%^..",
"..**%%^^%%**%%^^%%%%%twwwwwwwt%%twwwwwwwt%**==****^^%//==//***..",
"..**%%^^%%**%%^^%%%%^vuwwwwut***%tuwwwwuv^%%==//**^^%//==//***..",
"..**%%%%^^%%**%%^^^^^vuwwwwuv***%vuwwwwuv^%%==////%%^====**%%*..",
"..**%%%%^^%%**%%^^^^{vuwwwwuv%%%*vuwwwwuv*===={{//%%^====**%%*..",
"..%%**^^**==%%**&&&{{vuuuuuuv%%%*vuuuuuuv*==%={{{{**{^^%%**{{%..",
"..%%**^^**==%%**&&&{^uuuuuuuv*==^vuuuuuuu^==%%^^{{**{^^%%**{{%..",
"..%%&&&&^^====^^///^^uuuuuuu=*==^^uuuuuuu^=%%%^^^^^^^%%^^{{==*..",
"..%%&&&&^^====^^///^/BuuuuuB*%^^%%BuuuuuB{^%%%^^^^^^^%%^^{{==*..",
"..^^//=={{^^^^%%===/BBBBBBBBCDE^F%BBBBBBBBGHI%^^^^%%/^^%%==**%..",
"..^^//=={{^^^^%%===/BBBBBBBBJKLMNBBBBBBBBBO///^^%%%%/^^%%==**%..",
"....................BBBBBBBBBPQR.BBBBBBBBB..S...................",
"....................TBBBBBBBB.U..BBBBBBBBBV....................."};
