/* XPM */
static char *_f84ff9c096f4757e7b90514d12efe95SUhhqg2mnw81ahbf[] = {
/* columns rows colors chars-per-pixel */
"64 64 32 1 ",
"  c #3A211C",
". c #312522",
"X c #3A3527",
"o c #2E3C3F",
"O c #45283C",
"+ c #663931",
"@ c #675C3A",
"# c #1E3D43",
"$ c #3F3F74",
"% c #395459",
"& c #475A5E",
"* c #8F563B",
"= c #C95748",
"- c #BD9B75",
"; c #C9AD59",
": c #D9A066",
"> c #C6AE71",
", c #E9B47F",
"< c #F6CC4D",
"1 c #FFE06C",
"2 c #FFE76C",
"3 c #FFEE6C",
"4 c #FFFB6C",
"5 c #D1BA8A",
"6 c #D5C496",
"7 c #EEC39A",
"8 c #DACFA3",
"9 c #E3DBB0",
"0 c #F6D9BD",
"q c #E7E4BB",
"w c #EDEBCB",
"e c #CBDBFC",
/* pixels */
"-------------------------++++++++++++---------------------------",
"------------------------+**********+*+--+-----------------------",
"--88qq66886666qq55566qq+**+*+***+++***++886666qq55566qq88ww558--",
"--88qq66886666qq55566qq++*+**++****+*++6886666qq55566qq88ww558--",
"--qq556666qqqq55888888+**+*+***+++*****+66qqqq558888888668866q--",
"--qq556666qqqq558888888+**+0070777,+*+*++6qqqq558888888668866q--",
"--9999668855>>55555996++*+0777777,,,+**+8855>>5555599669988qq5--",
"--9999668855>>55555996***0777777,7,,,**+8855>>5555599669988qq5--",
"--55998866998899888998:*+,*O7777,7O*,++:669988998889988886655>--",
"--55998866998899888998:07,::O*::*O::,,,:669988998889988886655>--",
"--55>>5588999988666889:7,*OOOO::OOOO*:7:8899998866688996688886--",
"--55>>5588999988666889::7,e$$:07:$$e,,::8899998866688996688886--",
"--qq886666ww99885556655:77,,:7,77:,,7,:666ww998855566558888668--",
"--qq886666ww9988555665<:077777,,77777,:<66ww998855566558888668--",
"--6688886655ww55>>>55<13:77777::7777,:31<655ww55>>>55666688qq8--",
"--6688886655ww55>>>55<33:07777777777,:23<655ww55>>>55666688qq8--",
"--9999665555>>555559<<<33:077777777,344<<155>>555559966qq99886--",
"--9999665555>>55551<333<<1:777::777:1<<3331<>>555559966qq99886--",
"-->>556688886655><<34444441::7,,7::<33444431<655>>>558855qq889--",
"-->>556688886655><3444444;431::::<34;4444443<655>>>558855qq889--",
"--668899886688998<4444444;41 ,,,, 14;4444444189988888>>55>>666--",
"--668899886688998<4444444;41  7,  14;4444444189988888>>55>>666--",
"--66888899886688<34444444;4<. 77 .<4;44444443<8899999555566886--",
"--66888899886688<44444444;4<..  ..<4;44444444<8899999555566886--",
"--88669966558866<44441444@4<......<4@44414444<66qqqww998866ww8--",
"--88669966558866<4444<444X4<......<4X444<4444<66qqqww998866ww8--",
"--88qqqq99555599<4444<444X4<...==.<4X444<4444199>>>998899ww556--",
"--88qqqq99555599<4444<34444<..===.<44443<4444<99>>>998899ww556--",
"--99>>55ww999988<4444314444<..=.=.<4444134444<88555>>998855668--",
"--99>>55ww999988144443<4444<..=.=.<4444<34444<88555>>998855668--",
"--88qq66886666qq144444<4444<..=.=.<4444<34444<qq55566qq88ww558--",
"--88qq66886666qq144444<4443<.====.<4444<34444<qq55566qq88ww558--",
"--88556666669988144444<4443<..==..<4444<34444<5555599669988qq5--",
"--88556666669988144444<4443<....=.<3444<44444<5555599669988qq5--",
"--88qq66886666qq144444<4443<......<3444<44444<qq55566qq88ww558--",
"--88qq66886666qq144443<4443<......<3444<44444<qq55566qq88ww558--",
"--qq55qq66qqqq55144443<4443<......<3444<34444<558888888668866q--",
"--qq55qq66qqqq55<44443<4443<......<3444<344441558888888668866q--",
"--9999668855>>55<44443<4443<......<3444<34444<5555599669988qq5--",
"--9999668855>>55<44431<4443<......<2444<13444<5555599669988qq5--",
"--5599886699889914333<3344<........<4433<3334<998889988886655>--",
"--559988669988991<1331<<33<########<33<<1331<1998889988886655>--",
"--55>>5588999988,7<<13#%<<1%%%%%%%%1<<%#31<<,:9966688996688886--",
"--55>>558899998::7771<#%%%%%&&&&&%&%%%%#<177,::966688996688886--",
"--qq886666ww99::77777,o%%&&%&&&&&%&&&%%o,7777,::55566558888668--",
"--qq886666ww99:,7777,:o%&&&%&&&&&%&&&&%o:77777,:55886558888668--",
"--6688886655ww::,77::,o%&&&&%&&&%&&&&&%o,::777::88555666688qq8--",
"--6688886655ww5::,7,:,o%&&&&&%oo&&&&&&%o,:,7,::888555666688qq8--",
"--9999665555>>55::,,,:o%&&&&%o>>o%&&&&%o:,77::666655966qq99886--",
"--9999665555>>555::::6o%&&&&%o>>o%&&&&%o5::::9886655966qq99886--",
"-->>556688886655>>>558o%&&&&%o66o%&&&&%o88889988885558855qq889--",
"-->>556688886655>>>558#&&&&&%o66o%&&&&%#88885566885558855qq889--",
"--6688998866889988888#%&&&&&%o88o%&&&&&%#866556666998>>55>>666--",
"--6688998866889988888#&&&&&&&#88#&&&&&&&#86655>>66998>>55>>666--",
"--6688889988668899999o%&&&&%#6668#%&&&&%o98855>>>>889555566886--",
"--6688889988668899999o%&&&&%o6668o%&&&&%o98855ww>>889555566886--",
"--88669966558866qqqwwo%&&&&%o8886o%&&&&%o65555wwww66w998866ww8--",
"--88669966558866qqqwwo%%%&&%o8886o%&&%%%o6558899ww66w998866ww8--",
"--88qqqq99555599>>>99#%%%%%%o6559o%%%%%%#9558899999998899ww556--",
"--88qqqq99555599>>>99#%   %#565599#%   %#9588899999998899ww556--",
"--99>>55ww999988555>>       689988       w9888999988>998855668--",
"--99>>55ww999988555>        689988        9999998888>998855668--",
"--------------------         ----         ----------------------",
"--------------------         ----         ----------------------"
};
