/* XPM */
static char * wall_1_xpm[] = {
"64 64 184 2",
"  	c None",
". 	c #494949",
"+ 	c #262626",
"@ 	c #222222",
"# 	c #2E2E2E",
"$ 	c #383838",
"% 	c #404040",
"& 	c #424242",
"* 	c #3D3D3D",
"= 	c #474747",
"- 	c #4B4B4B",
"; 	c #4F4F4F",
"> 	c #515151",
", 	c #555555",
"' 	c #5D5D5D",
") 	c #626262",
"! 	c #636363",
"~ 	c #5F5F5F",
"{ 	c #737373",
"] 	c #161616",
"^ 	c #000000",
"/ 	c #0D0D0D",
"( 	c #1C1C1C",
"_ 	c #2A2A2A",
": 	c #323232",
"< 	c #4D4D4D",
"[ 	c #454545",
"} 	c #3B3B3B",
"| 	c #353535",
"1 	c #565656",
"2 	c #666666",
"3 	c #6E6E6E",
"4 	c #797979",
"5 	c #858585",
"6 	c #8E8E8E",
"7 	c #919191",
"8 	c #909090",
"9 	c #8F8F8F",
"0 	c #929292",
"a 	c #7C7C7C",
"b 	c #7D7D7D",
"c 	c #7E7E7E",
"d 	c #787878",
"e 	c #707070",
"f 	c #6A6A6A",
"g 	c #656565",
"h 	c #606060",
"i 	c #727272",
"j 	c #757575",
"k 	c #969696",
"l 	c #B4B4B4",
"m 	c #C9C9C9",
"n 	c #CCCCCC",
"o 	c #C7C7C7",
"p 	c #C3C3C3",
"q 	c #CECECE",
"r 	c #D3D3D3",
"s 	c #D4D4D4",
"t 	c #D0D0D0",
"u 	c #C2C2C2",
"v 	c #AAAAAA",
"w 	c #B0B0B0",
"x 	c #B9B9B9",
"y 	c #ADADAD",
"z 	c #9A9A9A",
"A 	c #8A8A8A",
"B 	c #838383",
"C 	c #8C8C8C",
"D 	c #979797",
"E 	c #A2A2A2",
"F 	c #A7A7A7",
"G 	c #A3A3A3",
"H 	c #9D9D9D",
"I 	c #949494",
"J 	c #585858",
"K 	c #868686",
"L 	c #BCBCBC",
"M 	c #DBDBDB",
"N 	c #DCDCDC",
"O 	c #CBCBCB",
"P 	c #BABABA",
"Q 	c #DFDFDF",
"R 	c #EEEEEE",
"S 	c #F2F2F2",
"T 	c #E6E6E6",
"U 	c #6C6C6C",
"V 	c #535353",
"W 	c #BBBBBB",
"X 	c #C6C6C6",
"Y 	c #B3B3B3",
"Z 	c #8B8B8B",
"` 	c #D1D1D1",
" .	c #D9D9D9",
"..	c #B1B1B1",
"+.	c #959595",
"@.	c #9F9F9F",
"#.	c #E0E0E0",
"$.	c #878787",
"%.	c #5C5C5C",
"&.	c #D7D7D7",
"*.	c #848484",
"=.	c #EFEFEF",
"-.	c #DADADA",
";.	c #828282",
">.	c #B5B5B5",
",.	c #DDDDDD",
"'.	c #BEBEBE",
").	c #696969",
"!.	c #5A5A5A",
"~.	c #6D6D6D",
"{.	c #999999",
"].	c #C8C8C8",
"^.	c #E9E9E9",
"/.	c #F6F6F6",
"(.	c #F9F9F9",
"_.	c #F8F8F8",
":.	c #9E9E9E",
"<.	c #A1A1A1",
"[.	c #818181",
"}.	c #7F7F7F",
"|.	c #E3E3E3",
"1.	c #E2E2E2",
"2.	c #BFBFBF",
"3.	c #BDBDBD",
"4.	c #E4E4E4",
"5.	c #C4C4C4",
"6.	c #AEAEAE",
"7.	c #FFFFFF",
"8.	c #EDEDED",
"9.	c #C0C0C0",
"0.	c #ABABAB",
"a.	c #C5C5C5",
"b.	c #9B9B9B",
"c.	c #888888",
"d.	c #A0A0A0",
"e.	c #F3F3F3",
"f.	c #FEFEFE",
"g.	c #AFAFAF",
"h.	c #B6B6B6",
"i.	c #A4A4A4",
"j.	c #686868",
"k.	c #717171",
"l.	c #7A7A7A",
"m.	c #FCFCFC",
"n.	c #F1F1F1",
"o.	c #767676",
"p.	c #777777",
"q.	c #E5E5E5",
"r.	c #989898",
"s.	c #F0F0F0",
"t.	c #ECECEC",
"u.	c #D8D8D8",
"v.	c #939393",
"w.	c #808080",
"x.	c #B7B7B7",
"y.	c #E7E7E7",
"z.	c #FBFBFB",
"A.	c #CDCDCD",
"B.	c #898989",
"C.	c #F7F7F7",
"D.	c #F4F4F4",
"E.	c #A9A9A9",
"F.	c #E1E1E1",
"G.	c #A5A5A5",
"H.	c #FDFDFD",
"I.	c #B2B2B2",
"J.	c #D6D6D6",
"K.	c #CACACA",
"L.	c #8D8D8D",
"M.	c #B8B8B8",
"N.	c #ACACAC",
"O.	c #FAFAFA",
"P.	c #A8A8A8",
"Q.	c #EAEAEA",
"R.	c #DEDEDE",
"S.	c #C1C1C1",
"T.	c #EBEBEB",
"U.	c #CFCFCF",
"V.	c #D2D2D2",
"W.	c #9C9C9C",
"X.	c #A6A6A6",
"Y.	c #F5F5F5",
"Z.	c #D5D5D5",
"`.	c #E8E8E8",
". + @ # $ % & & * * * * * * * * * * * * * * * * * % & = - ; > , ' ) ! ! ! ! ! ! ! ! ! ! ! ! ! ! ! ! ! ! ! ! ! ! ! ! ! ! ) ~ ! { ",
"] ^ ^ / / ( ( @ + + + + + + + + + + + + + + + + + + @ @ + + + _ # : : : : : : : : : : : : : : : : : : : : : : : : : : : # + @ _ ",
"/ ^ ^ ^ ( : * & . < ; ; ; ; ; ; ; ; ; ; ; < - - . . [ & % * } $ | : : : : : : : : : : : : : : : : : : : : : : : : : : # + ] / / ",
"/ ^ ^ / : 1 2 3 4 5 6 7 8 9 9 8 7 0 0 0 6 5 a { { 4 b c d e f g ) ) ! ! ! ! ) ) h ) ) ! ! ! ! ! ! ! ! ! ! ! ! ! ! ! ! ' [ @ ^ ^ ",
"/ ^ ^ ( < i j a k l m n o p p o q r s t u v 6 d a k w x y z A B C D E F F G H k I k H G F F F F F F F F F F F F F F F k 3 _ ^ ^ ",
"/ ^ ^ @ J f > , K L M N O P P O Q R S T o z U = V A W X Y 9 i f Z l ` M  .o ..H +.@.l O M Q #.#.#.#.#.#.#.#.#.#.#.#.Q O $.# ^ ^ ",
"] ^ ^ + %.h * % i w &.t v *.*.v s =.S -.y { & # [ ;...l 9 ) % | i >.#.R ,.'.9 ).!.~.{.].^./.(.(.(.(.(.(.(.(.(.(.(.(._.#.:.$ ^ ^ ",
"] ^ ^ + !.!.| | g <.m x [.= = }.L |.1.2.5 - @ @ ; 5 @.C h $ _ * a 3.T 4.5.7 1 _ ( : ~.6.#.(.7.7.7.7.7.7.7.7.7.7.7.7.7.8.G } ^ ^ ",
"] ^ ^ _ ~ ' | # J I 9.6.e * } ~.0.` a.b.h : + * f C c.) $ _ | h {.n |.r d.~ _ ] / @ ; I t e.f.7.7.7.7.7.7.7.7.7.7.7.7.8.g.= / ^ ",
"] ^ ^ _ ! 2 % + . $.h.i.j.# _ !.I l F k.& _ | ~ ;.5 2 } ] # J Z 9.Q ,.h.d $ / ( ( ( } l.L ^.m.7.7.7.7.7.7.7.7.7.7.7.7.n.l < / ^ ",
"] ^ ^ # U o.. + % 4 y v e | + - }.k p.= @ : !.[.Z i & + # V $.W N q.].r.J _ @ : # @ : g F N _.7.7.7.7.7.7.7.7.7.7.7.7.s.3.J / ^ ",
"] ^ ^ _ e B !.# | ).G 0.4 $ / | h 3 > _ _ < b I *., # _ < ;.l M t.u.0.U } ( : ; - : @ . A O s.f.7.7.7.7.7.7.7.7.7.7.7.e.'.%./ ^ ",
"] ^ ^ # p.7 j.| # %.k l 6 ; + # = . : ( * e v.7 ).$ @ * i 6. .s.4.W w.[ @ : , d U % ( $ i x.y.z.7.7.7.7.7.7.7.7.7.7.7.S p ! ] ^ ",
"] ^ ^ # 4 H j % @ - C l {.J ( ] + + @ | ! 8 H c - _ : %.b.A.R s.t b.1 + ( [ }.H B.V + + !.:.u.C.7.7.7.7.7.7.7.7.7.7.7.D.p ! ] ^ ",
"] ^ ^ : }.F w.[ @ [ ;.h.E.2 + / ] ] @ > c.G 7 ' _ ] & c P T /.F...i | / # j.G.u v ~.| + = B.].R H.7.7.7.7.7.7.7.7.7.7.S o j.] ^ ",
"] ^ ^ # }.6.A < + * 4 I.v g @ ^ ^ / | k.G i.c & + : ! G.J.S R K.v.> + _ ; L.'.s M.a * ] # j.N.#.O.7.7.7.7.7.7.7.7.7.7.D.a.j.] ^ ",
"] ^ / : *.>.I , _ } k.P.E.j.@ ^ ^ / & B.E.r.) $ _ > Z p Q./.#.g.U : ] | 2 +.P 9.6.l.[ @ @ . C O s.f.7.7.7.7.7.7.7.7.7.S m U ( ^ ",
"] ^ ^ : 5 W @.~ # | 2 b.z %.( ^ ^ ] . C d.a & _ & o.I.R./.=.O 8 . ( + % ) p.5 B o.1 : / / @ h 6.y.z.7.7.7.7.7.7.7.7.7.D.o ~.] ^ ",
"/ ^ / | C S.E.j.| # !.5 B < ] ^ ^ ] - *.Z ' # _ 1 D n s._.|.l k.$ ( + | & [ . % % # ( / ^ / [ b.N _.7.7.7.7.7.7.7.7.7.S n e ( ^ ",
"/ ^ / | Z o >.{ } _ - ~.j.$ ] / / ] % 3 ~.% ] $ k.Y |.(.S ` k , + @ + ( @ ( + ] @ / / ^ ^ / } 7 M _.7.7.7.7.7.7.7.7.7.D.m i ( ^ ",
"] ^ / | C m '.c % + } ; [ + ( @ ( ] | J V : _ ; 8 O =.z.T.'.b * @ _ | + | | % * & | _ ] / ] < :.N _.7.7.7.7.7.7.7.7.7.S q { @ ^ ",
"] ^ ^ : K O o B.. @ _ | # @ # } # ( # * | ( : 2 F ,.(.O.Q P.! _ @ % !.) ~.i a w.w.e ; + / @ !.i.F.z.7.7.7.7.7.7.7.7.7.D.K.o.( ^ ",
"] ^ ^ # B K.q v.< ( ( ( ] @ = ' ; # @ _ + ( } b 2.Q.m.D.&.{.1 _ : ' C i.h.x 5.X o w ;.. + : 2 w q.O.7.7.7.7.7.7.7.7.7.S U.o.@ ^ ",
"] ^ ^ _ b K.V.{.; ( / / ] $ U 5 3 } ( ( ] / % B.A.e.H.s.].5 & ( * p.Y &.T Q.R S t.V.r.1 + + h E.1.O.7.7.7.7.7.7.7.7.7.D.n p.( ^ ",
"( ^ ^ _ a o s W.< ] / / @ , 0 v B.- ( / / ( > @.N C.z.T.2.4 % _ ; 6 A.R O.m.H.f.C.#.F ! : | g N.1._.7.7.7.7.7.7.7.7.7.e.V.a + ^ ",
"( ^ ^ + { a.&.@.; ] / / | o.h.m G J ( / ^ ( %.v q.m.z.T ..f : _ !.b.&.C.7.7.7.7.O.R.G.h + + h X.Q O.7.7.7.7.7.7.7.7.7./.V.[.+ ^ ",
"@ ^ ^ @ k.p -.0.!.( / ] . I U.#.M.e _ ^ / _ e '.t.H.(.q.Y 3 } $ ).E.Q _.7.7.7.7._.|.w ~.$ $ ~.w |._.7.7.7.7.7.7.7.7.7./. .c.# ^ ",
"@ ^ ^ ( ).S.#.'.d $ ] _ j.g.|.R t L.[ ] / } $.A.D.7.O.T M.d * * o.h.q.O.7.7.7.7.z.T x d } } d x T z.7.7.7.7.7.7.7.7.7._.-.9 : ^ ",
"@ ^ ^ ( 2 2.y.J.E U [ !.8 m R _.4.x c > = { g.|._.7.z.R O z f f {.O R z.7.7.7.7.z.=.t <.o.o.<.t =.z.7.7.7.7.7.7.7.7.7._.R.+.$ ^ ",
"@ ^ ^ ( ) '.R T.O F 6 +...s =.z.Y.M 3.d.H Y Z.n.H.7.f.Y.#.5.N.N.5.#.Y.H.7.7.7.7.f./.q.n M.M.n q./.f.7.7.7.7.7.7.7.7.7.(.R.D | ^ ",
"+ ^ ^ ( ) 3.s._.4.m y @.F p |./.m.Y.y.Q N T n.m.7.7.7.m.S y.R.R.y.=./._.(.H.7.7.7.H./.8.y.y.8./.H.7.7.7.7.7.7.7.7.7.7._.#.z } ^ ",
"@ ^ ^ ( h 3.n.O.R q W.{ k.@.O R z.f.z.C.C.(.H.7.7.7.7.7.m._.Y.D.S 8.`.q.T.S m.7.7.7.f.z._._.z.f.7.7.7.7.7.7.7.7.7.7.7.(.R.r.$ ^ ",
"+ ^ ^ ( ) 3.s.z.t.9.}.* $ e 6.Q O.7.7.7.7.7.7.7.7.7.7.7.7.f.H.(.T.Z.L Y p ,.S H.7.7.7.7.7.7.7.7.7.7.7.7.7.7.7.7.7.7.7._.#.z } ^ ",
"@ ^ ^ ( ~ L s.z.T.5.c & # !.b.u.D.7.7.7.7.7.7.7.7.7.7.7.7.7.f./.#.w ;.).0 9.Q.(.7.7.7.7.7.7.7.7.7.7.7.7.7.7.7.7.7.7.7.(.R.r.$ ^ ",
"+ ^ ^ ( h P =.H.=.u }.} / % K O e.7.7.7.7.7.7.7.7.7.7.7.7.7.f.e.q 7 - + ~ <. ._.7.7.7.7.7.7.7.7.7.7.7.7.7.7.7.7.7.7.7._.#.z * ^ ",
"+ ^ ^ ] %.h.R H.n.U.B.. + & w.K.R H.7.7.7.7.7.7.7.7.7.7.7.7.H.=.U.B.. _ > 7 V.n.7.7.7.7.7.7.7.7.7.7.7.7.7.7.7.7.7.7.7.(.R.r.} ^ ",
"_ ^ ^ ] !.w ^.H./.q Z = ] | p.'.R H.7.7.7.7.7.7.7.7.7.7.7.7.7.e.O c.% / } b S.R f.7.7.7.7.7.7.7.7.7.7.7.7.7.7.7.7.7.7._.#.z * ^ ",
"_ ^ ^ ] V v y.z.D.J.7 > + * d p t.m.7.7.7.7.7.7.7.7.7.7.7.7.7.D.u.D V _ } { P `.z.7.7.7.7.7.7.7.7.7.7.7.7.7.7.7.7.7.7.(.R.r.} ^ ",
"# / ^ ] < G 1.O./.` 9 . ] : j W t.H.7.7.7.7.7.7.7.7.7.7.7.7.7.(.N d.%.+ + h F #.O.7.7.7.7.7.7.7.7.7.7.7.7.7.7.7.7.7.7._.#.{.* ^ ",
"# ^ ^ ] . :.#.(.D.&.v.> + * p.S.T.m.7.7.7.7.7.7.7.7.7.7.7.7.7.O.4...U $ # %.<.,./.7.7.7.7.7.7.7.7.7.7.7.7.7.7.7.7.7.7.(.R.D $ ^ ",
": / ^ ] - W.R.(./.` 9 . ] : j W t.H.7.7.7.7.7.7.7.7.7.7.7.7.7.m.`.l 3 : ( < I Z.C.7.7.7.7.7.7.7.7.7.7.7.7.7.7.7.7.7.7._.#.{.* ^ ",
"_ ^ ^ ] - H R._.D.J.7 > + * d p t.m.7.7.7.7.7.7.7.7.7.7.7.7.7.m.Q.'.p.* + V I u.D.7.7.7.7.7.7.7.7.7.7.7.7.7.7.7.7.7.7.(.R.r.$ ^ ",
"_ / / ] ; :.R.(./.q Z = ] | p.'.R H.7.7.7.7.7.7.7.7.7.7.7.7.7.H.t.W { : ] . 8 ` /.7.7.7.7.7.7.7.7.7.7.7.7.7.7.7.7.7.7._.#.r.} ^ ",
"@ / / ] > d.Q _.n.U.B.. + & w.K.R H.7.7.7.7.7.7.7.7.7.7.7.7.7.m.T.S.p.* + > v.&.D.7.7.7.7.7.7.7.7.7.7.7.7.7.7.7.7.7.7.(.,.0 | ^ ",
"@ / / ( , E Q C.R u b } / * K O e.7.7.7.7.7.7.7.7.7.7.7.7.7.7.H.t.W j : ] . 8 ` /.7.7.7.7.7.7.7.f.H.f.f.7.7.7.7.7.7.7._.,.7 : ^ ",
"] / / ( 1 i.Q /.^.L { } _ V I &.D.7.7.7.7.7.7.7.7.7.7.7.7.7.7.m.T.S.p.* + > v.&.D.7.7.7.7.7.H.(.Y.S D._.m.7.7.7.7.7.7.(.M A _ ^ ",
"( / / @ !.i.Q Y.|.v ! + + J W.u.(.7.7.7.7.7.7.7.7.7.7.7.7.7.7.H.t.W j : ] . 8 ` /.7.f.z._.S T.#.&.s  .T e.m.7.7.7.7.7._.-.A _ ^ ",
"/ / ] @ %.X.Q n.,.i.h : : ! P.#._.7.7.7.7.7.f.m.O._.(.z.f.7.7.m.T.S.p.* + > 0 &.S C.s.y.M t 3.6.b.D G 5.1./.f.7.7.7.7.(.u.;.+ ^ ",
"/ / ] + ' F Q R ` v.> @ + g 6.4.z.7.H.z.(.D.n.^.q.|.y.=.C.H.7.H.t.W j : ] . L.m |.R.K.x @.8 l.f J > 2 @.r n.z.7.7.7.7._.Z.B @ ^ ",
"^ / ] + ~ F R.`.X 5 = + * l.'.^._.Y.=.T ,.Z.o 3.g.g.x ` ^._.f.m.T.S.p.* + < *.l h.v Z p.!.< } | _ # = 9 O R z.7.7.7.7.(.V.d ( ^ ",
"^ / ] _ h F N #.Y e | @ - B.5.#.4. .o x.E I ;.p.).2 l.0.u.S m.H.t.W { : ] } j.;.l.g . * + + ] _ # = ~.X.J.S m.7.7.7.7./.q p.( ^ ",
"^ ^ ] + ) F u.J.E ' # : !.0 l 9...E 5 { ~ > % * : : = 8 O R z.m.T.2.k.| ( : = < } : ] _ + $ * , ! [.E m T _.f.7.7.7.7.C.m f ] ^ ",
"^ ^ ] + ) F s a.c.[ ( _ > o.[.;.3 ~ [ } _ + ] + @ $ !.b.V.n.z.H.^.y ~ @ / ] @ @ ] + # . J e w.D F 2.Z.^./.H.7.7.7.7.7.e.a.g ] ^ ",
"^ ^ ] _ ) X.O I.e : ] + } - [ [ : : ] _ _ * * - > U 6 L Q /.f.O.N b.< ] ^ / ] @ : < j.$.b.>.5.Z.Q T.e.O.f.7.7.7.7.7.7.e.x 1 / ^ ",
"^ / ] _ ! G 5.H V ( / ] ( + ] + ( : | - ' { c C D y a.R.n.m.f.D.O b : ^ ^ ^ ( % j.6 E.5.J.q.R D.O.m.f.7.7.7.7.7.7.7.7.t.Y < / ^ ",
"^ / ] _ ! E 2.+.[ / / ] ] + # [ - ! i L.@.x.p ` J.1.T./.m.7.f.T.x 2 ( ^ ^ / * 4 E.].,.t./.z.f.7.7.7.7.7.7.7.7.7.7.7.f.`.d.* ^ ^ ",
"^ ^ ] _ ) G p H V ( ] + } , ).[.9 F h.O  .T R S C.(.m.f.7.7.z.y.I.%.] ^ / : k.y -.R (.H.7.7.7.7.7.7.7.7.7.7.7.7.7.7.z.#.D | ^ ^ ",
"^ ^ / + h G.A.W c.' V g b W.6.5.U.R.y.=.C.z.f.7.7.7.7.7.7.7.z.`.>.g @ ] : 2 P.M /.f.7.7.7.7.7.7.7.7.7.7.7.7.7.7.7.7.O.-.5 _ ^ ^ ",
"^ ^ / + ~ F J.u.u v i.g.u J.|.T.D.C.z.H.f.7.7.7.7.7.7.7.7.7.z.=.O 8 ' > i E s D.f.7.7.7.7.7.7.7.7.7.7.7.7.7.7.7.7.7.C.Z.[.+ ^ ^ ",
"^ ^ / ( V +.X J.` K.].A.Z.R.|.T `.Q.t.t.8.8.R R =.R =.R R R =.^.&.W E W.g.K.q.n.D.Y././././././././.C._.(.O.O.O.O.O.e.O o.@ ^ ^ ",
"^ ^ ^ / # !.l.A Z A A C 8 v.+.{.{.@.:.G d.F G v G.0.G.v X.y y Y g.N.G G.F I.M.'.3.u u a.5.a.5.a.5.].m q ` s s J.Z.J.q g.h ] ^ ^ ",
"^ ^ ^ ^ ^ / ( @ @ @ @ @ + + + + # # : : | : $ | $ | $ | } } % [ - - < < ; ; > > , 1 !.!.' %.' ' h h 2 f k.j o.p.p.4 o.h : / ^ ^ ",
"^ ^ ^ ^ ^ ^ ^ ^ ^ ^ ^ ^ ^ ^ ^ ^ ^ ^ ^ ^ ^ ^ ^ ^ ^ ^ ^ ^ ^ ^ ^ ^ ^ ^ ^ ^ ^ ^ ^ ^ / / / / / / / / / / / / ] ] ] ] ] ] ] / ^ ^ ^ ^ ",
"^ ^ ^ ^ ^ ^ ^ ^ ^ ^ ^ ^ ^ ^ ^ ^ ^ ^ ^ ^ ^ ^ ^ ^ ^ ^ ^ ^ ^ ^ ^ ^ ^ ^ ^ ^ ^ ^ ^ ^ ^ ^ ^ ^ ^ ^ ^ ^ ^ ^ ^ ^ ^ ^ ^ ^ ^ ^ ^ ^ ^ ^ ^ ^ "};
